<?xml version="1.0" encoding="utf-8" standalone="no"?>
<!DOCTYPE svg PUBLIC "-//W3C//DTD SVG 1.1//EN"
  "http://www.w3.org/Graphics/SVG/1.1/DTD/svg11.dtd">
<svg xmlns:xlink="http://www.w3.org/1999/xlink" width="1188pt" height="936pt" viewBox="0 0 1188 936" xmlns="http://www.w3.org/2000/svg" version="1.1">
 <metadata>
  <rdf:RDF xmlns:dc="http://purl.org/dc/elements/1.1/" xmlns:cc="http://creativecommons.org/ns#" xmlns:rdf="http://www.w3.org/1999/02/22-rdf-syntax-ns#">
   <cc:Work>
    <dc:type rdf:resource="http://purl.org/dc/dcmitype/StillImage"/>
    <dc:date>2023-03-21T18:19:06.854815</dc:date>
    <dc:format>image/svg+xml</dc:format>
    <dc:creator>
     <cc:Agent>
      <dc:title>Matplotlib v3.5.2, https://matplotlib.org/</dc:title>
     </cc:Agent>
    </dc:creator>
   </cc:Work>
  </rdf:RDF>
 </metadata>
 <defs>
  <style type="text/css">*{stroke-linejoin: round; stroke-linecap: butt}</style>
 </defs>
 <g id="figure_1">
  <g id="patch_1">
   <path d="M 0 936 
L 1188 936 
L 1188 0 
L 0 0 
z
" style="fill: #ffffff"/>
  </g>
  <g id="axes_1">
   <g id="patch_2">
    <path d="M 148.5 655.2 
L 567 655.2 
L 567 112.32 
L 148.5 112.32 
z
" style="fill: #ffffff"/>
   </g>
   <g id="matplotlib.axis_1">
    <g id="xtick_1">
     <g id="line2d_1">
      <defs>
       <path id="m9a3ee0240d" d="M 0 0 
L 0 3.5 
" style="stroke: #000000; stroke-width: 0.8"/>
      </defs>
      <g>
       <use xlink:href="#m9a3ee0240d" x="167.522727" y="655.2" style="stroke: #000000; stroke-width: 0.8"/>
      </g>
     </g>
     <g id="text_1">
      <!-- 0.0 -->
      <g transform="translate(159.571165 669.798438)scale(0.1 -0.1)">
       <defs>
        <path id="DejaVuSans-30" d="M 2034 4250 
Q 1547 4250 1301 3770 
Q 1056 3291 1056 2328 
Q 1056 1369 1301 889 
Q 1547 409 2034 409 
Q 2525 409 2770 889 
Q 3016 1369 3016 2328 
Q 3016 3291 2770 3770 
Q 2525 4250 2034 4250 
z
M 2034 4750 
Q 2819 4750 3233 4129 
Q 3647 3509 3647 2328 
Q 3647 1150 3233 529 
Q 2819 -91 2034 -91 
Q 1250 -91 836 529 
Q 422 1150 422 2328 
Q 422 3509 836 4129 
Q 1250 4750 2034 4750 
z
" transform="scale(0.015625)"/>
        <path id="DejaVuSans-2e" d="M 684 794 
L 1344 794 
L 1344 0 
L 684 0 
L 684 794 
z
" transform="scale(0.015625)"/>
       </defs>
       <use xlink:href="#DejaVuSans-30"/>
       <use xlink:href="#DejaVuSans-2e" x="63.623047"/>
       <use xlink:href="#DejaVuSans-30" x="95.410156"/>
      </g>
     </g>
    </g>
    <g id="xtick_2">
     <g id="line2d_2">
      <g>
       <use xlink:href="#m9a3ee0240d" x="243.613636" y="655.2" style="stroke: #000000; stroke-width: 0.8"/>
      </g>
     </g>
     <g id="text_2">
      <!-- 0.2 -->
      <g transform="translate(235.662074 669.798438)scale(0.1 -0.1)">
       <defs>
        <path id="DejaVuSans-32" d="M 1228 531 
L 3431 531 
L 3431 0 
L 469 0 
L 469 531 
Q 828 903 1448 1529 
Q 2069 2156 2228 2338 
Q 2531 2678 2651 2914 
Q 2772 3150 2772 3378 
Q 2772 3750 2511 3984 
Q 2250 4219 1831 4219 
Q 1534 4219 1204 4116 
Q 875 4013 500 3803 
L 500 4441 
Q 881 4594 1212 4672 
Q 1544 4750 1819 4750 
Q 2544 4750 2975 4387 
Q 3406 4025 3406 3419 
Q 3406 3131 3298 2873 
Q 3191 2616 2906 2266 
Q 2828 2175 2409 1742 
Q 1991 1309 1228 531 
z
" transform="scale(0.015625)"/>
       </defs>
       <use xlink:href="#DejaVuSans-30"/>
       <use xlink:href="#DejaVuSans-2e" x="63.623047"/>
       <use xlink:href="#DejaVuSans-32" x="95.410156"/>
      </g>
     </g>
    </g>
    <g id="xtick_3">
     <g id="line2d_3">
      <g>
       <use xlink:href="#m9a3ee0240d" x="319.704545" y="655.2" style="stroke: #000000; stroke-width: 0.8"/>
      </g>
     </g>
     <g id="text_3">
      <!-- 0.4 -->
      <g transform="translate(311.752983 669.798438)scale(0.1 -0.1)">
       <defs>
        <path id="DejaVuSans-34" d="M 2419 4116 
L 825 1625 
L 2419 1625 
L 2419 4116 
z
M 2253 4666 
L 3047 4666 
L 3047 1625 
L 3713 1625 
L 3713 1100 
L 3047 1100 
L 3047 0 
L 2419 0 
L 2419 1100 
L 313 1100 
L 313 1709 
L 2253 4666 
z
" transform="scale(0.015625)"/>
       </defs>
       <use xlink:href="#DejaVuSans-30"/>
       <use xlink:href="#DejaVuSans-2e" x="63.623047"/>
       <use xlink:href="#DejaVuSans-34" x="95.410156"/>
      </g>
     </g>
    </g>
    <g id="xtick_4">
     <g id="line2d_4">
      <g>
       <use xlink:href="#m9a3ee0240d" x="395.795455" y="655.2" style="stroke: #000000; stroke-width: 0.8"/>
      </g>
     </g>
     <g id="text_4">
      <!-- 0.6 -->
      <g transform="translate(387.843892 669.798438)scale(0.1 -0.1)">
       <defs>
        <path id="DejaVuSans-36" d="M 2113 2584 
Q 1688 2584 1439 2293 
Q 1191 2003 1191 1497 
Q 1191 994 1439 701 
Q 1688 409 2113 409 
Q 2538 409 2786 701 
Q 3034 994 3034 1497 
Q 3034 2003 2786 2293 
Q 2538 2584 2113 2584 
z
M 3366 4563 
L 3366 3988 
Q 3128 4100 2886 4159 
Q 2644 4219 2406 4219 
Q 1781 4219 1451 3797 
Q 1122 3375 1075 2522 
Q 1259 2794 1537 2939 
Q 1816 3084 2150 3084 
Q 2853 3084 3261 2657 
Q 3669 2231 3669 1497 
Q 3669 778 3244 343 
Q 2819 -91 2113 -91 
Q 1303 -91 875 529 
Q 447 1150 447 2328 
Q 447 3434 972 4092 
Q 1497 4750 2381 4750 
Q 2619 4750 2861 4703 
Q 3103 4656 3366 4563 
z
" transform="scale(0.015625)"/>
       </defs>
       <use xlink:href="#DejaVuSans-30"/>
       <use xlink:href="#DejaVuSans-2e" x="63.623047"/>
       <use xlink:href="#DejaVuSans-36" x="95.410156"/>
      </g>
     </g>
    </g>
    <g id="xtick_5">
     <g id="line2d_5">
      <g>
       <use xlink:href="#m9a3ee0240d" x="471.886364" y="655.2" style="stroke: #000000; stroke-width: 0.8"/>
      </g>
     </g>
     <g id="text_5">
      <!-- 0.8 -->
      <g transform="translate(463.934801 669.798438)scale(0.1 -0.1)">
       <defs>
        <path id="DejaVuSans-38" d="M 2034 2216 
Q 1584 2216 1326 1975 
Q 1069 1734 1069 1313 
Q 1069 891 1326 650 
Q 1584 409 2034 409 
Q 2484 409 2743 651 
Q 3003 894 3003 1313 
Q 3003 1734 2745 1975 
Q 2488 2216 2034 2216 
z
M 1403 2484 
Q 997 2584 770 2862 
Q 544 3141 544 3541 
Q 544 4100 942 4425 
Q 1341 4750 2034 4750 
Q 2731 4750 3128 4425 
Q 3525 4100 3525 3541 
Q 3525 3141 3298 2862 
Q 3072 2584 2669 2484 
Q 3125 2378 3379 2068 
Q 3634 1759 3634 1313 
Q 3634 634 3220 271 
Q 2806 -91 2034 -91 
Q 1263 -91 848 271 
Q 434 634 434 1313 
Q 434 1759 690 2068 
Q 947 2378 1403 2484 
z
M 1172 3481 
Q 1172 3119 1398 2916 
Q 1625 2713 2034 2713 
Q 2441 2713 2670 2916 
Q 2900 3119 2900 3481 
Q 2900 3844 2670 4047 
Q 2441 4250 2034 4250 
Q 1625 4250 1398 4047 
Q 1172 3844 1172 3481 
z
" transform="scale(0.015625)"/>
       </defs>
       <use xlink:href="#DejaVuSans-30"/>
       <use xlink:href="#DejaVuSans-2e" x="63.623047"/>
       <use xlink:href="#DejaVuSans-38" x="95.410156"/>
      </g>
     </g>
    </g>
    <g id="xtick_6">
     <g id="line2d_6">
      <g>
       <use xlink:href="#m9a3ee0240d" x="547.977273" y="655.2" style="stroke: #000000; stroke-width: 0.8"/>
      </g>
     </g>
     <g id="text_6">
      <!-- 1.0 -->
      <g transform="translate(540.02571 669.798438)scale(0.1 -0.1)">
       <defs>
        <path id="DejaVuSans-31" d="M 794 531 
L 1825 531 
L 1825 4091 
L 703 3866 
L 703 4441 
L 1819 4666 
L 2450 4666 
L 2450 531 
L 3481 531 
L 3481 0 
L 794 0 
L 794 531 
z
" transform="scale(0.015625)"/>
       </defs>
       <use xlink:href="#DejaVuSans-31"/>
       <use xlink:href="#DejaVuSans-2e" x="63.623047"/>
       <use xlink:href="#DejaVuSans-30" x="95.410156"/>
      </g>
     </g>
    </g>
   </g>
   <g id="matplotlib.axis_2">
    <g id="ytick_1">
     <g id="line2d_7">
      <defs>
       <path id="mbbd4c6fda9" d="M 0 0 
L -3.5 0 
" style="stroke: #000000; stroke-width: 0.8"/>
      </defs>
      <g>
       <use xlink:href="#mbbd4c6fda9" x="148.5" y="630.523636" style="stroke: #000000; stroke-width: 0.8"/>
      </g>
     </g>
     <g id="text_7">
      <!-- 0.0 -->
      <g transform="translate(125.596875 634.322855)scale(0.1 -0.1)">
       <use xlink:href="#DejaVuSans-30"/>
       <use xlink:href="#DejaVuSans-2e" x="63.623047"/>
       <use xlink:href="#DejaVuSans-30" x="95.410156"/>
      </g>
     </g>
    </g>
    <g id="ytick_2">
     <g id="line2d_8">
      <g>
       <use xlink:href="#mbbd4c6fda9" x="148.5" y="531.818182" style="stroke: #000000; stroke-width: 0.8"/>
      </g>
     </g>
     <g id="text_8">
      <!-- 0.2 -->
      <g transform="translate(125.596875 535.617401)scale(0.1 -0.1)">
       <use xlink:href="#DejaVuSans-30"/>
       <use xlink:href="#DejaVuSans-2e" x="63.623047"/>
       <use xlink:href="#DejaVuSans-32" x="95.410156"/>
      </g>
     </g>
    </g>
    <g id="ytick_3">
     <g id="line2d_9">
      <g>
       <use xlink:href="#mbbd4c6fda9" x="148.5" y="433.112727" style="stroke: #000000; stroke-width: 0.8"/>
      </g>
     </g>
     <g id="text_9">
      <!-- 0.4 -->
      <g transform="translate(125.596875 436.911946)scale(0.1 -0.1)">
       <use xlink:href="#DejaVuSans-30"/>
       <use xlink:href="#DejaVuSans-2e" x="63.623047"/>
       <use xlink:href="#DejaVuSans-34" x="95.410156"/>
      </g>
     </g>
    </g>
    <g id="ytick_4">
     <g id="line2d_10">
      <g>
       <use xlink:href="#mbbd4c6fda9" x="148.5" y="334.407273" style="stroke: #000000; stroke-width: 0.8"/>
      </g>
     </g>
     <g id="text_10">
      <!-- 0.6 -->
      <g transform="translate(125.596875 338.206491)scale(0.1 -0.1)">
       <use xlink:href="#DejaVuSans-30"/>
       <use xlink:href="#DejaVuSans-2e" x="63.623047"/>
       <use xlink:href="#DejaVuSans-36" x="95.410156"/>
      </g>
     </g>
    </g>
    <g id="ytick_5">
     <g id="line2d_11">
      <g>
       <use xlink:href="#mbbd4c6fda9" x="148.5" y="235.701818" style="stroke: #000000; stroke-width: 0.8"/>
      </g>
     </g>
     <g id="text_11">
      <!-- 0.8 -->
      <g transform="translate(125.596875 239.501037)scale(0.1 -0.1)">
       <use xlink:href="#DejaVuSans-30"/>
       <use xlink:href="#DejaVuSans-2e" x="63.623047"/>
       <use xlink:href="#DejaVuSans-38" x="95.410156"/>
      </g>
     </g>
    </g>
    <g id="ytick_6">
     <g id="line2d_12">
      <g>
       <use xlink:href="#mbbd4c6fda9" x="148.5" y="136.996364" style="stroke: #000000; stroke-width: 0.8"/>
      </g>
     </g>
     <g id="text_12">
      <!-- 1.0 -->
      <g transform="translate(125.596875 140.795582)scale(0.1 -0.1)">
       <use xlink:href="#DejaVuSans-31"/>
       <use xlink:href="#DejaVuSans-2e" x="63.623047"/>
       <use xlink:href="#DejaVuSans-30" x="95.410156"/>
      </g>
     </g>
    </g>
   </g>
   <g id="line2d_13">
    <path d="M 167.522727 630.523636 
L 175.287106 620.451651 
L 183.051484 610.379666 
L 190.815863 600.307681 
L 198.580241 590.235696 
L 206.34462 580.163711 
L 214.108998 570.091725 
L 221.873377 560.01974 
L 229.637755 549.947755 
L 237.402134 539.87577 
L 245.166512 529.803785 
L 252.930891 519.7318 
L 260.695269 509.659814 
L 268.459647 499.587829 
L 276.224026 489.515844 
L 283.988404 479.443859 
L 291.752783 469.371874 
L 299.517161 459.299889 
L 307.28154 449.227904 
L 315.045918 439.155918 
L 322.810297 429.083933 
L 330.574675 419.011948 
L 338.339054 408.939963 
L 346.103432 398.867978 
L 353.867811 388.795993 
L 361.632189 378.724007 
L 369.396568 368.652022 
L 377.160946 358.580037 
L 384.925325 348.508052 
L 392.689703 338.436067 
L 400.454082 328.364082 
L 408.21846 318.292096 
L 415.982839 308.220111 
L 423.747217 298.148126 
L 431.511596 288.076141 
L 439.275974 278.004156 
L 447.040353 267.932171 
L 454.804731 257.860186 
L 462.569109 247.7882 
L 470.333488 237.716215 
L 478.097866 227.64423 
L 485.862245 217.572245 
L 493.626623 207.50026 
L 501.391002 197.428275 
L 509.15538 187.356289 
L 516.919759 177.284304 
L 524.684137 167.212319 
L 532.448516 157.140334 
L 540.212894 147.068349 
L 547.977273 136.996364 
" clip-path="url(#ped04ae7b70)" style="fill: none; stroke: #1f77b4; stroke-width: 1.5; stroke-linecap: square"/>
   </g>
   <g id="line2d_14">
    <path d="M 167.522727 630.523636 
L 175.287106 602.704578 
L 183.051484 578.403074 
L 190.815863 557.197109 
L 198.580241 538.699988 
L 206.34462 522.558779 
L 214.108998 508.452753 
L 221.873377 496.091822 
L 229.637755 485.214979 
L 237.402134 475.588739 
L 245.166512 467.005577 
L 252.930891 459.28237 
L 260.695269 452.258834 
L 268.459647 445.795966 
L 276.224026 439.774483 
L 283.988404 434.093259 
L 291.752783 428.667771 
L 299.517161 423.428533 
L 307.28154 418.319537 
L 315.045918 413.296695 
L 322.810297 408.326276 
L 330.574675 403.383347 
L 338.339054 398.450213 
L 346.103432 393.514856 
L 353.867811 388.569376 
L 361.632189 383.608428 
L 369.396568 378.627664 
L 377.160946 373.622174 
L 384.925325 368.584921 
L 392.689703 363.505185 
L 400.454082 358.367003 
L 408.21846 353.147604 
L 415.982839 347.815855 
L 423.747217 342.330693 
L 431.511596 336.639575 
L 439.275974 330.676907 
L 447.040353 324.362492 
L 454.804731 317.599965 
L 462.569109 310.275233 
L 470.333488 302.254919 
L 478.097866 293.384796 
L 485.862245 283.488229 
L 493.626623 272.364618 
L 501.391002 259.787831 
L 509.15538 245.50465 
L 516.919759 229.233207 
L 524.684137 210.661427 
L 532.448516 189.445462 
L 540.212894 165.208138 
L 547.977273 137.537388 
" clip-path="url(#ped04ae7b70)" style="fill: none; stroke: #ff7f0e; stroke-width: 1.5; stroke-linecap: square"/>
   </g>
   <g id="line2d_15">
    <path d="M 270.099863 497.460135 
L 270.069999 458.759887 
" clip-path="url(#ped04ae7b70)" style="fill: none; stroke: #2ca02c; stroke-width: 1.5; stroke-linecap: square"/>
   </g>
   <g id="line2d_16">
    <path d="M 340.249091 406.462255 
L 270.069999 458.759887 
" clip-path="url(#ped04ae7b70)" style="fill: none; stroke: #d62728; stroke-width: 1.5; stroke-linecap: square"/>
   </g>
   <g id="line2d_17">
    <path d="M 171.327273 625.588364 
L 270.069999 458.759887 
" clip-path="url(#ped04ae7b70)" style="fill: none; stroke: #9467bd; stroke-width: 1.5; stroke-linecap: square"/>
   </g>
   <g id="line2d_18">
    <path d="M 171.327273 625.588364 
L 171.327273 616.424801 
" clip-path="url(#ped04ae7b70)" style="fill: none; stroke-dasharray: 5.55,2.4; stroke-dashoffset: 0; stroke: #000000; stroke-width: 1.5"/>
   </g>
   <g id="line2d_19">
    <path d="M 171.327273 616.424801 
L 176.751018 616.424801 
" clip-path="url(#ped04ae7b70)" style="fill: none; stroke-dasharray: 5.55,2.4; stroke-dashoffset: 0; stroke: #000000; stroke-width: 1.5"/>
   </g>
   <g id="line2d_20">
    <path d="M 176.751018 616.424801 
L 176.751018 597.866925 
" clip-path="url(#ped04ae7b70)" style="fill: none; stroke-dasharray: 5.55,2.4; stroke-dashoffset: 0; stroke: #000000; stroke-width: 1.5"/>
   </g>
   <g id="line2d_21">
    <path d="M 176.751018 597.866925 
L 187.735085 597.866925 
" clip-path="url(#ped04ae7b70)" style="fill: none; stroke-dasharray: 5.55,2.4; stroke-dashoffset: 0; stroke: #000000; stroke-width: 1.5"/>
   </g>
   <g id="line2d_22">
    <path d="M 187.735085 597.866925 
L 187.735085 565.266335 
" clip-path="url(#ped04ae7b70)" style="fill: none; stroke-dasharray: 5.55,2.4; stroke-dashoffset: 0; stroke: #000000; stroke-width: 1.5"/>
   </g>
   <g id="line2d_23">
    <path d="M 187.735085 565.266335 
L 207.030779 565.266335 
" clip-path="url(#ped04ae7b70)" style="fill: none; stroke-dasharray: 5.55,2.4; stroke-dashoffset: 0; stroke: #000000; stroke-width: 1.5"/>
   </g>
   <g id="line2d_24">
    <path d="M 207.030779 565.266335 
L 207.030779 521.234659 
" clip-path="url(#ped04ae7b70)" style="fill: none; stroke-dasharray: 5.55,2.4; stroke-dashoffset: 0; stroke: #000000; stroke-width: 1.5"/>
   </g>
   <g id="line2d_25">
    <path d="M 207.030779 521.234659 
L 233.092324 521.234659 
" clip-path="url(#ped04ae7b70)" style="fill: none; stroke-dasharray: 5.55,2.4; stroke-dashoffset: 0; stroke: #000000; stroke-width: 1.5"/>
   </g>
   <g id="line2d_26">
    <path d="M 233.092324 521.234659 
L 233.092324 480.790517 
" clip-path="url(#ped04ae7b70)" style="fill: none; stroke-dasharray: 5.55,2.4; stroke-dashoffset: 0; stroke: #000000; stroke-width: 1.5"/>
   </g>
   <g id="line2d_27">
    <path d="M 233.092324 480.790517 
L 257.030472 480.790517 
" clip-path="url(#ped04ae7b70)" style="fill: none; stroke-dasharray: 5.55,2.4; stroke-dashoffset: 0; stroke: #000000; stroke-width: 1.5"/>
   </g>
   <g id="line2d_28">
    <path d="M 257.030472 480.790517 
L 257.030472 455.496069 
" clip-path="url(#ped04ae7b70)" style="fill: none; stroke-dasharray: 5.55,2.4; stroke-dashoffset: 0; stroke: #000000; stroke-width: 1.5"/>
   </g>
   <g id="line2d_29">
    <path d="M 257.030472 455.496069 
L 274.449773 455.496069 
" clip-path="url(#ped04ae7b70)" style="fill: none; stroke-dasharray: 5.55,2.4; stroke-dashoffset: 0; stroke: #000000; stroke-width: 1.5"/>
   </g>
   <g id="line2d_30">
    <path d="M 274.449773 455.496069 
L 274.449773 441.117097 
" clip-path="url(#ped04ae7b70)" style="fill: none; stroke-dasharray: 5.55,2.4; stroke-dashoffset: 0; stroke: #000000; stroke-width: 1.5"/>
   </g>
   <g id="line2d_31">
    <path d="M 274.449773 441.117097 
L 293.745163 441.117097 
" clip-path="url(#ped04ae7b70)" style="fill: none; stroke-dasharray: 5.55,2.4; stroke-dashoffset: 0; stroke: #000000; stroke-width: 1.5"/>
   </g>
   <g id="line2d_32">
    <path d="M 293.745163 441.117097 
L 293.745163 427.308051 
" clip-path="url(#ped04ae7b70)" style="fill: none; stroke-dasharray: 5.55,2.4; stroke-dashoffset: 0; stroke: #000000; stroke-width: 1.5"/>
   </g>
   <g id="line2d_33">
    <path d="M 293.745163 427.308051 
L 312.275758 427.308051 
" clip-path="url(#ped04ae7b70)" style="fill: none; stroke-dasharray: 5.55,2.4; stroke-dashoffset: 0; stroke: #000000; stroke-width: 1.5"/>
   </g>
   <g id="line2d_34">
    <path d="M 312.275758 427.308051 
L 312.275758 415.081173 
" clip-path="url(#ped04ae7b70)" style="fill: none; stroke-dasharray: 5.55,2.4; stroke-dashoffset: 0; stroke: #000000; stroke-width: 1.5"/>
   </g>
   <g id="line2d_35">
    <path d="M 312.275758 415.081173 
L 328.683217 415.081173 
" clip-path="url(#ped04ae7b70)" style="fill: none; stroke-dasharray: 5.55,2.4; stroke-dashoffset: 0; stroke: #000000; stroke-width: 1.5"/>
   </g>
   <g id="line2d_36">
    <path d="M 328.683217 415.081173 
L 328.683217 404.586009 
" clip-path="url(#ped04ae7b70)" style="fill: none; stroke-dasharray: 5.55,2.4; stroke-dashoffset: 0; stroke: #000000; stroke-width: 1.5"/>
   </g>
   <g id="line2d_37">
    <path d="M 328.683217 404.586009 
L 341.695468 404.586009 
" clip-path="url(#ped04ae7b70)" style="fill: none; stroke-dasharray: 5.55,2.4; stroke-dashoffset: 0; stroke: #000000; stroke-width: 1.5"/>
   </g>
   <g id="patch_3">
    <path d="M 148.5 655.2 
L 148.5 112.32 
" style="fill: none; stroke: #000000; stroke-width: 0.8; stroke-linejoin: miter; stroke-linecap: square"/>
   </g>
   <g id="patch_4">
    <path d="M 567 655.2 
L 567 112.32 
" style="fill: none; stroke: #000000; stroke-width: 0.8; stroke-linejoin: miter; stroke-linecap: square"/>
   </g>
   <g id="patch_5">
    <path d="M 148.5 655.2 
L 567 655.2 
" style="fill: none; stroke: #000000; stroke-width: 0.8; stroke-linejoin: miter; stroke-linecap: square"/>
   </g>
   <g id="patch_6">
    <path d="M 148.5 112.32 
L 567 112.32 
" style="fill: none; stroke: #000000; stroke-width: 0.8; stroke-linejoin: miter; stroke-linecap: square"/>
   </g>
   <g id="text_13">
    <!-- 1atm Column -->
    <g transform="translate(317.175 106.32)scale(0.12 -0.12)">
     <defs>
      <path id="DejaVuSans-61" d="M 2194 1759 
Q 1497 1759 1228 1600 
Q 959 1441 959 1056 
Q 959 750 1161 570 
Q 1363 391 1709 391 
Q 2188 391 2477 730 
Q 2766 1069 2766 1631 
L 2766 1759 
L 2194 1759 
z
M 3341 1997 
L 3341 0 
L 2766 0 
L 2766 531 
Q 2569 213 2275 61 
Q 1981 -91 1556 -91 
Q 1019 -91 701 211 
Q 384 513 384 1019 
Q 384 1609 779 1909 
Q 1175 2209 1959 2209 
L 2766 2209 
L 2766 2266 
Q 2766 2663 2505 2880 
Q 2244 3097 1772 3097 
Q 1472 3097 1187 3025 
Q 903 2953 641 2809 
L 641 3341 
Q 956 3463 1253 3523 
Q 1550 3584 1831 3584 
Q 2591 3584 2966 3190 
Q 3341 2797 3341 1997 
z
" transform="scale(0.015625)"/>
      <path id="DejaVuSans-74" d="M 1172 4494 
L 1172 3500 
L 2356 3500 
L 2356 3053 
L 1172 3053 
L 1172 1153 
Q 1172 725 1289 603 
Q 1406 481 1766 481 
L 2356 481 
L 2356 0 
L 1766 0 
Q 1100 0 847 248 
Q 594 497 594 1153 
L 594 3053 
L 172 3053 
L 172 3500 
L 594 3500 
L 594 4494 
L 1172 4494 
z
" transform="scale(0.015625)"/>
      <path id="DejaVuSans-6d" d="M 3328 2828 
Q 3544 3216 3844 3400 
Q 4144 3584 4550 3584 
Q 5097 3584 5394 3201 
Q 5691 2819 5691 2113 
L 5691 0 
L 5113 0 
L 5113 2094 
Q 5113 2597 4934 2840 
Q 4756 3084 4391 3084 
Q 3944 3084 3684 2787 
Q 3425 2491 3425 1978 
L 3425 0 
L 2847 0 
L 2847 2094 
Q 2847 2600 2669 2842 
Q 2491 3084 2119 3084 
Q 1678 3084 1418 2786 
Q 1159 2488 1159 1978 
L 1159 0 
L 581 0 
L 581 3500 
L 1159 3500 
L 1159 2956 
Q 1356 3278 1631 3431 
Q 1906 3584 2284 3584 
Q 2666 3584 2933 3390 
Q 3200 3197 3328 2828 
z
" transform="scale(0.015625)"/>
      <path id="DejaVuSans-20" transform="scale(0.015625)"/>
      <path id="DejaVuSans-43" d="M 4122 4306 
L 4122 3641 
Q 3803 3938 3442 4084 
Q 3081 4231 2675 4231 
Q 1875 4231 1450 3742 
Q 1025 3253 1025 2328 
Q 1025 1406 1450 917 
Q 1875 428 2675 428 
Q 3081 428 3442 575 
Q 3803 722 4122 1019 
L 4122 359 
Q 3791 134 3420 21 
Q 3050 -91 2638 -91 
Q 1578 -91 968 557 
Q 359 1206 359 2328 
Q 359 3453 968 4101 
Q 1578 4750 2638 4750 
Q 3056 4750 3426 4639 
Q 3797 4528 4122 4306 
z
" transform="scale(0.015625)"/>
      <path id="DejaVuSans-6f" d="M 1959 3097 
Q 1497 3097 1228 2736 
Q 959 2375 959 1747 
Q 959 1119 1226 758 
Q 1494 397 1959 397 
Q 2419 397 2687 759 
Q 2956 1122 2956 1747 
Q 2956 2369 2687 2733 
Q 2419 3097 1959 3097 
z
M 1959 3584 
Q 2709 3584 3137 3096 
Q 3566 2609 3566 1747 
Q 3566 888 3137 398 
Q 2709 -91 1959 -91 
Q 1206 -91 779 398 
Q 353 888 353 1747 
Q 353 2609 779 3096 
Q 1206 3584 1959 3584 
z
" transform="scale(0.015625)"/>
      <path id="DejaVuSans-6c" d="M 603 4863 
L 1178 4863 
L 1178 0 
L 603 0 
L 603 4863 
z
" transform="scale(0.015625)"/>
      <path id="DejaVuSans-75" d="M 544 1381 
L 544 3500 
L 1119 3500 
L 1119 1403 
Q 1119 906 1312 657 
Q 1506 409 1894 409 
Q 2359 409 2629 706 
Q 2900 1003 2900 1516 
L 2900 3500 
L 3475 3500 
L 3475 0 
L 2900 0 
L 2900 538 
Q 2691 219 2414 64 
Q 2138 -91 1772 -91 
Q 1169 -91 856 284 
Q 544 659 544 1381 
z
M 1991 3584 
L 1991 3584 
z
" transform="scale(0.015625)"/>
      <path id="DejaVuSans-6e" d="M 3513 2113 
L 3513 0 
L 2938 0 
L 2938 2094 
Q 2938 2591 2744 2837 
Q 2550 3084 2163 3084 
Q 1697 3084 1428 2787 
Q 1159 2491 1159 1978 
L 1159 0 
L 581 0 
L 581 3500 
L 1159 3500 
L 1159 2956 
Q 1366 3272 1645 3428 
Q 1925 3584 2291 3584 
Q 2894 3584 3203 3211 
Q 3513 2838 3513 2113 
z
" transform="scale(0.015625)"/>
     </defs>
     <use xlink:href="#DejaVuSans-31"/>
     <use xlink:href="#DejaVuSans-61" x="63.623047"/>
     <use xlink:href="#DejaVuSans-74" x="124.902344"/>
     <use xlink:href="#DejaVuSans-6d" x="164.111328"/>
     <use xlink:href="#DejaVuSans-20" x="261.523438"/>
     <use xlink:href="#DejaVuSans-43" x="293.310547"/>
     <use xlink:href="#DejaVuSans-6f" x="363.134766"/>
     <use xlink:href="#DejaVuSans-6c" x="424.316406"/>
     <use xlink:href="#DejaVuSans-75" x="452.099609"/>
     <use xlink:href="#DejaVuSans-6d" x="515.478516"/>
     <use xlink:href="#DejaVuSans-6e" x="612.890625"/>
    </g>
   </g>
   <g id="legend_1">
    <g id="patch_7">
     <path d="M 155.5 193.710625 
L 262.30625 193.710625 
Q 264.30625 193.710625 264.30625 191.710625 
L 264.30625 119.32 
Q 264.30625 117.32 262.30625 117.32 
L 155.5 117.32 
Q 153.5 117.32 153.5 119.32 
L 153.5 191.710625 
Q 153.5 193.710625 155.5 193.710625 
z
" style="fill: #ffffff; opacity: 0.8; stroke: #cccccc; stroke-linejoin: miter"/>
    </g>
    <g id="line2d_38">
     <path d="M 157.5 125.418438 
L 167.5 125.418438 
L 177.5 125.418438 
" style="fill: none; stroke: #1f77b4; stroke-width: 1.5; stroke-linecap: square"/>
    </g>
    <g id="text_14">
     <!-- Azeotrope Line -->
     <g transform="translate(185.5 128.918438)scale(0.1 -0.1)">
      <defs>
       <path id="DejaVuSans-41" d="M 2188 4044 
L 1331 1722 
L 3047 1722 
L 2188 4044 
z
M 1831 4666 
L 2547 4666 
L 4325 0 
L 3669 0 
L 3244 1197 
L 1141 1197 
L 716 0 
L 50 0 
L 1831 4666 
z
" transform="scale(0.015625)"/>
       <path id="DejaVuSans-7a" d="M 353 3500 
L 3084 3500 
L 3084 2975 
L 922 459 
L 3084 459 
L 3084 0 
L 275 0 
L 275 525 
L 2438 3041 
L 353 3041 
L 353 3500 
z
" transform="scale(0.015625)"/>
       <path id="DejaVuSans-65" d="M 3597 1894 
L 3597 1613 
L 953 1613 
Q 991 1019 1311 708 
Q 1631 397 2203 397 
Q 2534 397 2845 478 
Q 3156 559 3463 722 
L 3463 178 
Q 3153 47 2828 -22 
Q 2503 -91 2169 -91 
Q 1331 -91 842 396 
Q 353 884 353 1716 
Q 353 2575 817 3079 
Q 1281 3584 2069 3584 
Q 2775 3584 3186 3129 
Q 3597 2675 3597 1894 
z
M 3022 2063 
Q 3016 2534 2758 2815 
Q 2500 3097 2075 3097 
Q 1594 3097 1305 2825 
Q 1016 2553 972 2059 
L 3022 2063 
z
" transform="scale(0.015625)"/>
       <path id="DejaVuSans-72" d="M 2631 2963 
Q 2534 3019 2420 3045 
Q 2306 3072 2169 3072 
Q 1681 3072 1420 2755 
Q 1159 2438 1159 1844 
L 1159 0 
L 581 0 
L 581 3500 
L 1159 3500 
L 1159 2956 
Q 1341 3275 1631 3429 
Q 1922 3584 2338 3584 
Q 2397 3584 2469 3576 
Q 2541 3569 2628 3553 
L 2631 2963 
z
" transform="scale(0.015625)"/>
       <path id="DejaVuSans-70" d="M 1159 525 
L 1159 -1331 
L 581 -1331 
L 581 3500 
L 1159 3500 
L 1159 2969 
Q 1341 3281 1617 3432 
Q 1894 3584 2278 3584 
Q 2916 3584 3314 3078 
Q 3713 2572 3713 1747 
Q 3713 922 3314 415 
Q 2916 -91 2278 -91 
Q 1894 -91 1617 61 
Q 1341 213 1159 525 
z
M 3116 1747 
Q 3116 2381 2855 2742 
Q 2594 3103 2138 3103 
Q 1681 3103 1420 2742 
Q 1159 2381 1159 1747 
Q 1159 1113 1420 752 
Q 1681 391 2138 391 
Q 2594 391 2855 752 
Q 3116 1113 3116 1747 
z
" transform="scale(0.015625)"/>
       <path id="DejaVuSans-4c" d="M 628 4666 
L 1259 4666 
L 1259 531 
L 3531 531 
L 3531 0 
L 628 0 
L 628 4666 
z
" transform="scale(0.015625)"/>
       <path id="DejaVuSans-69" d="M 603 3500 
L 1178 3500 
L 1178 0 
L 603 0 
L 603 3500 
z
M 603 4863 
L 1178 4863 
L 1178 4134 
L 603 4134 
L 603 4863 
z
" transform="scale(0.015625)"/>
      </defs>
      <use xlink:href="#DejaVuSans-41"/>
      <use xlink:href="#DejaVuSans-7a" x="68.408203"/>
      <use xlink:href="#DejaVuSans-65" x="120.898438"/>
      <use xlink:href="#DejaVuSans-6f" x="182.421875"/>
      <use xlink:href="#DejaVuSans-74" x="243.603516"/>
      <use xlink:href="#DejaVuSans-72" x="282.8125"/>
      <use xlink:href="#DejaVuSans-6f" x="321.675781"/>
      <use xlink:href="#DejaVuSans-70" x="382.857422"/>
      <use xlink:href="#DejaVuSans-65" x="446.333984"/>
      <use xlink:href="#DejaVuSans-20" x="507.857422"/>
      <use xlink:href="#DejaVuSans-4c" x="539.644531"/>
      <use xlink:href="#DejaVuSans-69" x="595.357422"/>
      <use xlink:href="#DejaVuSans-6e" x="623.140625"/>
      <use xlink:href="#DejaVuSans-65" x="686.519531"/>
     </g>
    </g>
    <g id="line2d_39">
     <path d="M 157.5 140.096563 
L 167.5 140.096563 
L 177.5 140.096563 
" style="fill: none; stroke: #ff7f0e; stroke-width: 1.5; stroke-linecap: square"/>
    </g>
    <g id="text_15">
     <!-- VLE Line -->
     <g transform="translate(185.5 143.596563)scale(0.1 -0.1)">
      <defs>
       <path id="DejaVuSans-56" d="M 1831 0 
L 50 4666 
L 709 4666 
L 2188 738 
L 3669 4666 
L 4325 4666 
L 2547 0 
L 1831 0 
z
" transform="scale(0.015625)"/>
       <path id="DejaVuSans-45" d="M 628 4666 
L 3578 4666 
L 3578 4134 
L 1259 4134 
L 1259 2753 
L 3481 2753 
L 3481 2222 
L 1259 2222 
L 1259 531 
L 3634 531 
L 3634 0 
L 628 0 
L 628 4666 
z
" transform="scale(0.015625)"/>
      </defs>
      <use xlink:href="#DejaVuSans-56"/>
      <use xlink:href="#DejaVuSans-4c" x="68.408203"/>
      <use xlink:href="#DejaVuSans-45" x="124.121094"/>
      <use xlink:href="#DejaVuSans-20" x="187.304688"/>
      <use xlink:href="#DejaVuSans-4c" x="219.091797"/>
      <use xlink:href="#DejaVuSans-69" x="274.804688"/>
      <use xlink:href="#DejaVuSans-6e" x="302.587891"/>
      <use xlink:href="#DejaVuSans-65" x="365.966797"/>
     </g>
    </g>
    <g id="line2d_40">
     <path d="M 157.5 154.774688 
L 167.5 154.774688 
L 177.5 154.774688 
" style="fill: none; stroke: #2ca02c; stroke-width: 1.5; stroke-linecap: square"/>
    </g>
    <g id="text_16">
     <!-- q Line -->
     <g transform="translate(185.5 158.274688)scale(0.1 -0.1)">
      <defs>
       <path id="DejaVuSans-71" d="M 947 1747 
Q 947 1113 1208 752 
Q 1469 391 1925 391 
Q 2381 391 2643 752 
Q 2906 1113 2906 1747 
Q 2906 2381 2643 2742 
Q 2381 3103 1925 3103 
Q 1469 3103 1208 2742 
Q 947 2381 947 1747 
z
M 2906 525 
Q 2725 213 2448 61 
Q 2172 -91 1784 -91 
Q 1150 -91 751 415 
Q 353 922 353 1747 
Q 353 2572 751 3078 
Q 1150 3584 1784 3584 
Q 2172 3584 2448 3432 
Q 2725 3281 2906 2969 
L 2906 3500 
L 3481 3500 
L 3481 -1331 
L 2906 -1331 
L 2906 525 
z
" transform="scale(0.015625)"/>
      </defs>
      <use xlink:href="#DejaVuSans-71"/>
      <use xlink:href="#DejaVuSans-20" x="63.476562"/>
      <use xlink:href="#DejaVuSans-4c" x="95.263672"/>
      <use xlink:href="#DejaVuSans-69" x="150.976562"/>
      <use xlink:href="#DejaVuSans-6e" x="178.759766"/>
      <use xlink:href="#DejaVuSans-65" x="242.138672"/>
     </g>
    </g>
    <g id="line2d_41">
     <path d="M 157.5 169.452813 
L 167.5 169.452813 
L 177.5 169.452813 
" style="fill: none; stroke: #d62728; stroke-width: 1.5; stroke-linecap: square"/>
    </g>
    <g id="text_17">
     <!-- Operating Line -->
     <g transform="translate(185.5 172.952813)scale(0.1 -0.1)">
      <defs>
       <path id="DejaVuSans-4f" d="M 2522 4238 
Q 1834 4238 1429 3725 
Q 1025 3213 1025 2328 
Q 1025 1447 1429 934 
Q 1834 422 2522 422 
Q 3209 422 3611 934 
Q 4013 1447 4013 2328 
Q 4013 3213 3611 3725 
Q 3209 4238 2522 4238 
z
M 2522 4750 
Q 3503 4750 4090 4092 
Q 4678 3434 4678 2328 
Q 4678 1225 4090 567 
Q 3503 -91 2522 -91 
Q 1538 -91 948 565 
Q 359 1222 359 2328 
Q 359 3434 948 4092 
Q 1538 4750 2522 4750 
z
" transform="scale(0.015625)"/>
       <path id="DejaVuSans-67" d="M 2906 1791 
Q 2906 2416 2648 2759 
Q 2391 3103 1925 3103 
Q 1463 3103 1205 2759 
Q 947 2416 947 1791 
Q 947 1169 1205 825 
Q 1463 481 1925 481 
Q 2391 481 2648 825 
Q 2906 1169 2906 1791 
z
M 3481 434 
Q 3481 -459 3084 -895 
Q 2688 -1331 1869 -1331 
Q 1566 -1331 1297 -1286 
Q 1028 -1241 775 -1147 
L 775 -588 
Q 1028 -725 1275 -790 
Q 1522 -856 1778 -856 
Q 2344 -856 2625 -561 
Q 2906 -266 2906 331 
L 2906 616 
Q 2728 306 2450 153 
Q 2172 0 1784 0 
Q 1141 0 747 490 
Q 353 981 353 1791 
Q 353 2603 747 3093 
Q 1141 3584 1784 3584 
Q 2172 3584 2450 3431 
Q 2728 3278 2906 2969 
L 2906 3500 
L 3481 3500 
L 3481 434 
z
" transform="scale(0.015625)"/>
      </defs>
      <use xlink:href="#DejaVuSans-4f"/>
      <use xlink:href="#DejaVuSans-70" x="78.710938"/>
      <use xlink:href="#DejaVuSans-65" x="142.1875"/>
      <use xlink:href="#DejaVuSans-72" x="203.710938"/>
      <use xlink:href="#DejaVuSans-61" x="244.824219"/>
      <use xlink:href="#DejaVuSans-74" x="306.103516"/>
      <use xlink:href="#DejaVuSans-69" x="345.3125"/>
      <use xlink:href="#DejaVuSans-6e" x="373.095703"/>
      <use xlink:href="#DejaVuSans-67" x="436.474609"/>
      <use xlink:href="#DejaVuSans-20" x="499.951172"/>
      <use xlink:href="#DejaVuSans-4c" x="531.738281"/>
      <use xlink:href="#DejaVuSans-69" x="587.451172"/>
      <use xlink:href="#DejaVuSans-6e" x="615.234375"/>
      <use xlink:href="#DejaVuSans-65" x="678.613281"/>
     </g>
    </g>
    <g id="line2d_42">
     <path d="M 157.5 184.130938 
L 167.5 184.130938 
L 177.5 184.130938 
" style="fill: none; stroke: #9467bd; stroke-width: 1.5; stroke-linecap: square"/>
    </g>
    <g id="text_18">
     <!-- Stripping Line -->
     <g transform="translate(185.5 187.630938)scale(0.1 -0.1)">
      <defs>
       <path id="DejaVuSans-53" d="M 3425 4513 
L 3425 3897 
Q 3066 4069 2747 4153 
Q 2428 4238 2131 4238 
Q 1616 4238 1336 4038 
Q 1056 3838 1056 3469 
Q 1056 3159 1242 3001 
Q 1428 2844 1947 2747 
L 2328 2669 
Q 3034 2534 3370 2195 
Q 3706 1856 3706 1288 
Q 3706 609 3251 259 
Q 2797 -91 1919 -91 
Q 1588 -91 1214 -16 
Q 841 59 441 206 
L 441 856 
Q 825 641 1194 531 
Q 1563 422 1919 422 
Q 2459 422 2753 634 
Q 3047 847 3047 1241 
Q 3047 1584 2836 1778 
Q 2625 1972 2144 2069 
L 1759 2144 
Q 1053 2284 737 2584 
Q 422 2884 422 3419 
Q 422 4038 858 4394 
Q 1294 4750 2059 4750 
Q 2388 4750 2728 4690 
Q 3069 4631 3425 4513 
z
" transform="scale(0.015625)"/>
      </defs>
      <use xlink:href="#DejaVuSans-53"/>
      <use xlink:href="#DejaVuSans-74" x="63.476562"/>
      <use xlink:href="#DejaVuSans-72" x="102.685547"/>
      <use xlink:href="#DejaVuSans-69" x="143.798828"/>
      <use xlink:href="#DejaVuSans-70" x="171.582031"/>
      <use xlink:href="#DejaVuSans-70" x="235.058594"/>
      <use xlink:href="#DejaVuSans-69" x="298.535156"/>
      <use xlink:href="#DejaVuSans-6e" x="326.318359"/>
      <use xlink:href="#DejaVuSans-67" x="389.697266"/>
      <use xlink:href="#DejaVuSans-20" x="453.173828"/>
      <use xlink:href="#DejaVuSans-4c" x="484.960938"/>
      <use xlink:href="#DejaVuSans-69" x="540.673828"/>
      <use xlink:href="#DejaVuSans-6e" x="568.457031"/>
      <use xlink:href="#DejaVuSans-65" x="631.835938"/>
     </g>
    </g>
   </g>
  </g>
  <g id="axes_2">
   <g id="patch_8">
    <path d="M 650.7 655.2 
L 1069.2 655.2 
L 1069.2 112.32 
L 650.7 112.32 
z
" style="fill: #ffffff"/>
   </g>
   <g id="matplotlib.axis_3">
    <g id="xtick_7">
     <g id="line2d_43">
      <g>
       <use xlink:href="#m9a3ee0240d" x="669.722727" y="655.2" style="stroke: #000000; stroke-width: 0.8"/>
      </g>
     </g>
     <g id="text_19">
      <!-- 0.0 -->
      <g transform="translate(661.771165 669.798438)scale(0.1 -0.1)">
       <use xlink:href="#DejaVuSans-30"/>
       <use xlink:href="#DejaVuSans-2e" x="63.623047"/>
       <use xlink:href="#DejaVuSans-30" x="95.410156"/>
      </g>
     </g>
    </g>
    <g id="xtick_8">
     <g id="line2d_44">
      <g>
       <use xlink:href="#m9a3ee0240d" x="745.813636" y="655.2" style="stroke: #000000; stroke-width: 0.8"/>
      </g>
     </g>
     <g id="text_20">
      <!-- 0.2 -->
      <g transform="translate(737.862074 669.798438)scale(0.1 -0.1)">
       <use xlink:href="#DejaVuSans-30"/>
       <use xlink:href="#DejaVuSans-2e" x="63.623047"/>
       <use xlink:href="#DejaVuSans-32" x="95.410156"/>
      </g>
     </g>
    </g>
    <g id="xtick_9">
     <g id="line2d_45">
      <g>
       <use xlink:href="#m9a3ee0240d" x="821.904545" y="655.2" style="stroke: #000000; stroke-width: 0.8"/>
      </g>
     </g>
     <g id="text_21">
      <!-- 0.4 -->
      <g transform="translate(813.952983 669.798438)scale(0.1 -0.1)">
       <use xlink:href="#DejaVuSans-30"/>
       <use xlink:href="#DejaVuSans-2e" x="63.623047"/>
       <use xlink:href="#DejaVuSans-34" x="95.410156"/>
      </g>
     </g>
    </g>
    <g id="xtick_10">
     <g id="line2d_46">
      <g>
       <use xlink:href="#m9a3ee0240d" x="897.995455" y="655.2" style="stroke: #000000; stroke-width: 0.8"/>
      </g>
     </g>
     <g id="text_22">
      <!-- 0.6 -->
      <g transform="translate(890.043892 669.798438)scale(0.1 -0.1)">
       <use xlink:href="#DejaVuSans-30"/>
       <use xlink:href="#DejaVuSans-2e" x="63.623047"/>
       <use xlink:href="#DejaVuSans-36" x="95.410156"/>
      </g>
     </g>
    </g>
    <g id="xtick_11">
     <g id="line2d_47">
      <g>
       <use xlink:href="#m9a3ee0240d" x="974.086364" y="655.2" style="stroke: #000000; stroke-width: 0.8"/>
      </g>
     </g>
     <g id="text_23">
      <!-- 0.8 -->
      <g transform="translate(966.134801 669.798438)scale(0.1 -0.1)">
       <use xlink:href="#DejaVuSans-30"/>
       <use xlink:href="#DejaVuSans-2e" x="63.623047"/>
       <use xlink:href="#DejaVuSans-38" x="95.410156"/>
      </g>
     </g>
    </g>
    <g id="xtick_12">
     <g id="line2d_48">
      <g>
       <use xlink:href="#m9a3ee0240d" x="1050.177273" y="655.2" style="stroke: #000000; stroke-width: 0.8"/>
      </g>
     </g>
     <g id="text_24">
      <!-- 1.0 -->
      <g transform="translate(1042.22571 669.798438)scale(0.1 -0.1)">
       <use xlink:href="#DejaVuSans-31"/>
       <use xlink:href="#DejaVuSans-2e" x="63.623047"/>
       <use xlink:href="#DejaVuSans-30" x="95.410156"/>
      </g>
     </g>
    </g>
   </g>
   <g id="matplotlib.axis_4">
    <g id="ytick_7">
     <g id="line2d_49">
      <g>
       <use xlink:href="#mbbd4c6fda9" x="650.7" y="630.523636" style="stroke: #000000; stroke-width: 0.8"/>
      </g>
     </g>
     <g id="text_25">
      <!-- 0.0 -->
      <g transform="translate(627.796875 634.322855)scale(0.1 -0.1)">
       <use xlink:href="#DejaVuSans-30"/>
       <use xlink:href="#DejaVuSans-2e" x="63.623047"/>
       <use xlink:href="#DejaVuSans-30" x="95.410156"/>
      </g>
     </g>
    </g>
    <g id="ytick_8">
     <g id="line2d_50">
      <g>
       <use xlink:href="#mbbd4c6fda9" x="650.7" y="531.818182" style="stroke: #000000; stroke-width: 0.8"/>
      </g>
     </g>
     <g id="text_26">
      <!-- 0.2 -->
      <g transform="translate(627.796875 535.617401)scale(0.1 -0.1)">
       <use xlink:href="#DejaVuSans-30"/>
       <use xlink:href="#DejaVuSans-2e" x="63.623047"/>
       <use xlink:href="#DejaVuSans-32" x="95.410156"/>
      </g>
     </g>
    </g>
    <g id="ytick_9">
     <g id="line2d_51">
      <g>
       <use xlink:href="#mbbd4c6fda9" x="650.7" y="433.112727" style="stroke: #000000; stroke-width: 0.8"/>
      </g>
     </g>
     <g id="text_27">
      <!-- 0.4 -->
      <g transform="translate(627.796875 436.911946)scale(0.1 -0.1)">
       <use xlink:href="#DejaVuSans-30"/>
       <use xlink:href="#DejaVuSans-2e" x="63.623047"/>
       <use xlink:href="#DejaVuSans-34" x="95.410156"/>
      </g>
     </g>
    </g>
    <g id="ytick_10">
     <g id="line2d_52">
      <g>
       <use xlink:href="#mbbd4c6fda9" x="650.7" y="334.407273" style="stroke: #000000; stroke-width: 0.8"/>
      </g>
     </g>
     <g id="text_28">
      <!-- 0.6 -->
      <g transform="translate(627.796875 338.206491)scale(0.1 -0.1)">
       <use xlink:href="#DejaVuSans-30"/>
       <use xlink:href="#DejaVuSans-2e" x="63.623047"/>
       <use xlink:href="#DejaVuSans-36" x="95.410156"/>
      </g>
     </g>
    </g>
    <g id="ytick_11">
     <g id="line2d_53">
      <g>
       <use xlink:href="#mbbd4c6fda9" x="650.7" y="235.701818" style="stroke: #000000; stroke-width: 0.8"/>
      </g>
     </g>
     <g id="text_29">
      <!-- 0.8 -->
      <g transform="translate(627.796875 239.501037)scale(0.1 -0.1)">
       <use xlink:href="#DejaVuSans-30"/>
       <use xlink:href="#DejaVuSans-2e" x="63.623047"/>
       <use xlink:href="#DejaVuSans-38" x="95.410156"/>
      </g>
     </g>
    </g>
    <g id="ytick_12">
     <g id="line2d_54">
      <g>
       <use xlink:href="#mbbd4c6fda9" x="650.7" y="136.996364" style="stroke: #000000; stroke-width: 0.8"/>
      </g>
     </g>
     <g id="text_30">
      <!-- 1.0 -->
      <g transform="translate(627.796875 140.795582)scale(0.1 -0.1)">
       <use xlink:href="#DejaVuSans-31"/>
       <use xlink:href="#DejaVuSans-2e" x="63.623047"/>
       <use xlink:href="#DejaVuSans-30" x="95.410156"/>
      </g>
     </g>
    </g>
   </g>
   <g id="line2d_55">
    <path d="M 669.722727 630.523636 
L 677.487106 620.451651 
L 685.251484 610.379666 
L 693.015863 600.307681 
L 700.780241 590.235696 
L 708.54462 580.163711 
L 716.308998 570.091725 
L 724.073377 560.01974 
L 731.837755 549.947755 
L 739.602134 539.87577 
L 747.366512 529.803785 
L 755.130891 519.7318 
L 762.895269 509.659814 
L 770.659647 499.587829 
L 778.424026 489.515844 
L 786.188404 479.443859 
L 793.952783 469.371874 
L 801.717161 459.299889 
L 809.48154 449.227904 
L 817.245918 439.155918 
L 825.010297 429.083933 
L 832.774675 419.011948 
L 840.539054 408.939963 
L 848.303432 398.867978 
L 856.067811 388.795993 
L 863.832189 378.724007 
L 871.596568 368.652022 
L 879.360946 358.580037 
L 887.125325 348.508052 
L 894.889703 338.436067 
L 902.654082 328.364082 
L 910.41846 318.292096 
L 918.182839 308.220111 
L 925.947217 298.148126 
L 933.711596 288.076141 
L 941.475974 278.004156 
L 949.240353 267.932171 
L 957.004731 257.860186 
L 964.769109 247.7882 
L 972.533488 237.716215 
L 980.297866 227.64423 
L 988.062245 217.572245 
L 995.826623 207.50026 
L 1003.591002 197.428275 
L 1011.35538 187.356289 
L 1019.119759 177.284304 
L 1026.884137 167.212319 
L 1034.648516 157.140334 
L 1042.412894 147.068349 
L 1050.177273 136.996364 
" clip-path="url(#p1711c0d890)" style="fill: none; stroke: #1f77b4; stroke-width: 1.5; stroke-linecap: square"/>
   </g>
   <g id="line2d_56">
    <path d="M 669.722727 630.523636 
L 677.487106 615.296591 
L 685.251484 601.348195 
L 693.015863 588.574541 
L 700.780241 576.872774 
L 708.54462 566.141958 
L 716.308998 556.283834 
L 724.073377 547.203512 
L 731.837755 538.810071 
L 739.602134 531.017067 
L 747.366512 523.742969 
L 755.130891 516.9115 
L 762.895269 510.451896 
L 770.659647 504.29908 
L 778.424026 498.393751 
L 786.188404 492.682387 
L 793.952783 487.117165 
L 801.717161 481.655792 
L 809.48154 476.261253 
L 817.245918 470.901476 
L 825.010297 465.548909 
L 832.774675 460.180011 
L 840.539054 454.774663 
L 848.303432 449.315485 
L 856.067811 443.787079 
L 863.832189 438.175177 
L 871.596568 432.465709 
L 879.360946 426.643785 
L 887.125325 420.692594 
L 894.889703 414.592208 
L 902.654082 408.318318 
L 910.41846 401.840868 
L 918.182839 395.122614 
L 925.947217 388.117593 
L 933.711596 380.769513 
L 941.475974 373.010048 
L 949.240353 364.757057 
L 957.004731 355.912711 
L 964.769109 346.361545 
L 972.533488 335.968408 
L 980.297866 324.576347 
L 988.062245 312.004391 
L 995.826623 298.045258 
L 1003.591002 282.462973 
L 1011.35538 264.990402 
L 1019.119759 245.326706 
L 1026.884137 223.134696 
L 1034.648516 198.03812 
L 1042.412894 169.618851 
L 1050.177273 137.414001 
" clip-path="url(#p1711c0d890)" style="fill: none; stroke: #ff7f0e; stroke-width: 1.5; stroke-linecap: square"/>
   </g>
   <g id="line2d_57">
    <path d="M 843.895468 404.586009 
L 838.237355 443.394424 
" clip-path="url(#p1711c0d890)" style="fill: none; stroke: #2ca02c; stroke-width: 1.5; stroke-linecap: square"/>
   </g>
   <g id="line2d_58">
    <path d="M 781.956818 484.933091 
L 838.237355 443.394424 
" clip-path="url(#p1711c0d890)" style="fill: none; stroke: #d62728; stroke-width: 1.5; stroke-linecap: square"/>
   </g>
   <g id="line2d_59">
    <path d="M 1047.323864 140.697818 
L 838.237355 443.394424 
" clip-path="url(#p1711c0d890)" style="fill: none; stroke: #9467bd; stroke-width: 1.5; stroke-linecap: square"/>
   </g>
   <g id="line2d_60">
    <path d="M 1047.323864 140.697818 
L 1047.323864 149.720479 
" clip-path="url(#p1711c0d890)" style="fill: none; stroke-dasharray: 5.55,2.4; stroke-dashoffset: 0; stroke: #000000; stroke-width: 1.5"/>
   </g>
   <g id="line2d_61">
    <path d="M 1047.323864 149.720479 
L 1041.091496 149.720479 
" clip-path="url(#p1711c0d890)" style="fill: none; stroke-dasharray: 5.55,2.4; stroke-dashoffset: 0; stroke: #000000; stroke-width: 1.5"/>
   </g>
   <g id="line2d_62">
    <path d="M 1041.091496 149.720479 
L 1041.091496 174.709422 
" clip-path="url(#p1711c0d890)" style="fill: none; stroke-dasharray: 5.55,2.4; stroke-dashoffset: 0; stroke: #000000; stroke-width: 1.5"/>
   </g>
   <g id="line2d_63">
    <path d="M 1041.091496 174.709422 
L 1023.83048 174.709422 
" clip-path="url(#p1711c0d890)" style="fill: none; stroke-dasharray: 5.55,2.4; stroke-dashoffset: 0; stroke: #000000; stroke-width: 1.5"/>
   </g>
   <g id="line2d_64">
    <path d="M 1023.83048 174.709422 
L 1023.83048 232.187389 
" clip-path="url(#p1711c0d890)" style="fill: none; stroke-dasharray: 5.55,2.4; stroke-dashoffset: 0; stroke: #000000; stroke-width: 1.5"/>
   </g>
   <g id="line2d_65">
    <path d="M 1023.83048 232.187389 
L 984.127797 232.187389 
" clip-path="url(#p1711c0d890)" style="fill: none; stroke-dasharray: 5.55,2.4; stroke-dashoffset: 0; stroke: #000000; stroke-width: 1.5"/>
   </g>
   <g id="line2d_66">
    <path d="M 984.127797 232.187389 
L 984.127797 318.534697 
" clip-path="url(#p1711c0d890)" style="fill: none; stroke-dasharray: 5.55,2.4; stroke-dashoffset: 0; stroke: #000000; stroke-width: 1.5"/>
   </g>
   <g id="line2d_67">
    <path d="M 984.127797 318.534697 
L 924.483728 318.534697 
" clip-path="url(#p1711c0d890)" style="fill: none; stroke-dasharray: 5.55,2.4; stroke-dashoffset: 0; stroke: #000000; stroke-width: 1.5"/>
   </g>
   <g id="line2d_68">
    <path d="M 924.483728 318.534697 
L 924.483728 389.46233 
" clip-path="url(#p1711c0d890)" style="fill: none; stroke-dasharray: 5.55,2.4; stroke-dashoffset: 0; stroke: #000000; stroke-width: 1.5"/>
   </g>
   <g id="line2d_69">
    <path d="M 924.483728 389.46233 
L 875.49074 389.46233 
" clip-path="url(#p1711c0d890)" style="fill: none; stroke-dasharray: 5.55,2.4; stroke-dashoffset: 0; stroke: #000000; stroke-width: 1.5"/>
   </g>
   <g id="line2d_70">
    <path d="M 875.49074 389.46233 
L 875.49074 429.560812 
" clip-path="url(#p1711c0d890)" style="fill: none; stroke-dasharray: 5.55,2.4; stroke-dashoffset: 0; stroke: #000000; stroke-width: 1.5"/>
   </g>
   <g id="line2d_71">
    <path d="M 875.49074 429.560812 
L 847.792868 429.560812 
" clip-path="url(#p1711c0d890)" style="fill: none; stroke-dasharray: 5.55,2.4; stroke-dashoffset: 0; stroke: #000000; stroke-width: 1.5"/>
   </g>
   <g id="line2d_72">
    <path d="M 847.792868 429.560812 
L 847.792868 449.676432 
" clip-path="url(#p1711c0d890)" style="fill: none; stroke-dasharray: 5.55,2.4; stroke-dashoffset: 0; stroke: #000000; stroke-width: 1.5"/>
   </g>
   <g id="line2d_73">
    <path d="M 847.792868 449.676432 
L 829.725893 449.676432 
" clip-path="url(#p1711c0d890)" style="fill: none; stroke-dasharray: 5.55,2.4; stroke-dashoffset: 0; stroke: #000000; stroke-width: 1.5"/>
   </g>
   <g id="line2d_74">
    <path d="M 829.725893 449.676432 
L 829.725893 462.291478 
" clip-path="url(#p1711c0d890)" style="fill: none; stroke-dasharray: 5.55,2.4; stroke-dashoffset: 0; stroke: #000000; stroke-width: 1.5"/>
   </g>
   <g id="line2d_75">
    <path d="M 829.725893 462.291478 
L 812.633828 462.291478 
" clip-path="url(#p1711c0d890)" style="fill: none; stroke-dasharray: 5.55,2.4; stroke-dashoffset: 0; stroke: #000000; stroke-width: 1.5"/>
   </g>
   <g id="line2d_76">
    <path d="M 812.633828 462.291478 
L 812.633828 474.082679 
" clip-path="url(#p1711c0d890)" style="fill: none; stroke-dasharray: 5.55,2.4; stroke-dashoffset: 0; stroke: #000000; stroke-width: 1.5"/>
   </g>
   <g id="line2d_77">
    <path d="M 812.633828 474.082679 
L 796.657988 474.082679 
" clip-path="url(#p1711c0d890)" style="fill: none; stroke-dasharray: 5.55,2.4; stroke-dashoffset: 0; stroke: #000000; stroke-width: 1.5"/>
   </g>
   <g id="line2d_78">
    <path d="M 796.657988 474.082679 
L 796.657988 485.204565 
" clip-path="url(#p1711c0d890)" style="fill: none; stroke-dasharray: 5.55,2.4; stroke-dashoffset: 0; stroke: #000000; stroke-width: 1.5"/>
   </g>
   <g id="line2d_79">
    <path d="M 796.657988 485.204565 
L 781.747542 485.204565 
" clip-path="url(#p1711c0d890)" style="fill: none; stroke-dasharray: 5.55,2.4; stroke-dashoffset: 0; stroke: #000000; stroke-width: 1.5"/>
   </g>
   <g id="patch_9">
    <path d="M 650.7 655.2 
L 650.7 112.32 
" style="fill: none; stroke: #000000; stroke-width: 0.8; stroke-linejoin: miter; stroke-linecap: square"/>
   </g>
   <g id="patch_10">
    <path d="M 1069.2 655.2 
L 1069.2 112.32 
" style="fill: none; stroke: #000000; stroke-width: 0.8; stroke-linejoin: miter; stroke-linecap: square"/>
   </g>
   <g id="patch_11">
    <path d="M 650.7 655.2 
L 1069.2 655.2 
" style="fill: none; stroke: #000000; stroke-width: 0.8; stroke-linejoin: miter; stroke-linecap: square"/>
   </g>
   <g id="patch_12">
    <path d="M 650.7 112.32 
L 1069.2 112.32 
" style="fill: none; stroke: #000000; stroke-width: 0.8; stroke-linejoin: miter; stroke-linecap: square"/>
   </g>
   <g id="text_31">
    <!-- 10atm Column -->
    <g transform="translate(815.5575 106.32)scale(0.12 -0.12)">
     <use xlink:href="#DejaVuSans-31"/>
     <use xlink:href="#DejaVuSans-30" x="63.623047"/>
     <use xlink:href="#DejaVuSans-61" x="127.246094"/>
     <use xlink:href="#DejaVuSans-74" x="188.525391"/>
     <use xlink:href="#DejaVuSans-6d" x="227.734375"/>
     <use xlink:href="#DejaVuSans-20" x="325.146484"/>
     <use xlink:href="#DejaVuSans-43" x="356.933594"/>
     <use xlink:href="#DejaVuSans-6f" x="426.757812"/>
     <use xlink:href="#DejaVuSans-6c" x="487.939453"/>
     <use xlink:href="#DejaVuSans-75" x="515.722656"/>
     <use xlink:href="#DejaVuSans-6d" x="579.101562"/>
     <use xlink:href="#DejaVuSans-6e" x="676.513672"/>
    </g>
   </g>
   <g id="legend_2">
    <g id="patch_13">
     <path d="M 657.7 193.710625 
L 764.50625 193.710625 
Q 766.50625 193.710625 766.50625 191.710625 
L 766.50625 119.32 
Q 766.50625 117.32 764.50625 117.32 
L 657.7 117.32 
Q 655.7 117.32 655.7 119.32 
L 655.7 191.710625 
Q 655.7 193.710625 657.7 193.710625 
z
" style="fill: #ffffff; opacity: 0.8; stroke: #cccccc; stroke-linejoin: miter"/>
    </g>
    <g id="line2d_80">
     <path d="M 659.7 125.418438 
L 669.7 125.418438 
L 679.7 125.418438 
" style="fill: none; stroke: #1f77b4; stroke-width: 1.5; stroke-linecap: square"/>
    </g>
    <g id="text_32">
     <!-- Azeotrope Line -->
     <g transform="translate(687.7 128.918438)scale(0.1 -0.1)">
      <use xlink:href="#DejaVuSans-41"/>
      <use xlink:href="#DejaVuSans-7a" x="68.408203"/>
      <use xlink:href="#DejaVuSans-65" x="120.898438"/>
      <use xlink:href="#DejaVuSans-6f" x="182.421875"/>
      <use xlink:href="#DejaVuSans-74" x="243.603516"/>
      <use xlink:href="#DejaVuSans-72" x="282.8125"/>
      <use xlink:href="#DejaVuSans-6f" x="321.675781"/>
      <use xlink:href="#DejaVuSans-70" x="382.857422"/>
      <use xlink:href="#DejaVuSans-65" x="446.333984"/>
      <use xlink:href="#DejaVuSans-20" x="507.857422"/>
      <use xlink:href="#DejaVuSans-4c" x="539.644531"/>
      <use xlink:href="#DejaVuSans-69" x="595.357422"/>
      <use xlink:href="#DejaVuSans-6e" x="623.140625"/>
      <use xlink:href="#DejaVuSans-65" x="686.519531"/>
     </g>
    </g>
    <g id="line2d_81">
     <path d="M 659.7 140.096563 
L 669.7 140.096563 
L 679.7 140.096563 
" style="fill: none; stroke: #ff7f0e; stroke-width: 1.5; stroke-linecap: square"/>
    </g>
    <g id="text_33">
     <!-- VLE Line -->
     <g transform="translate(687.7 143.596563)scale(0.1 -0.1)">
      <use xlink:href="#DejaVuSans-56"/>
      <use xlink:href="#DejaVuSans-4c" x="68.408203"/>
      <use xlink:href="#DejaVuSans-45" x="124.121094"/>
      <use xlink:href="#DejaVuSans-20" x="187.304688"/>
      <use xlink:href="#DejaVuSans-4c" x="219.091797"/>
      <use xlink:href="#DejaVuSans-69" x="274.804688"/>
      <use xlink:href="#DejaVuSans-6e" x="302.587891"/>
      <use xlink:href="#DejaVuSans-65" x="365.966797"/>
     </g>
    </g>
    <g id="line2d_82">
     <path d="M 659.7 154.774688 
L 669.7 154.774688 
L 679.7 154.774688 
" style="fill: none; stroke: #2ca02c; stroke-width: 1.5; stroke-linecap: square"/>
    </g>
    <g id="text_34">
     <!-- q Line -->
     <g transform="translate(687.7 158.274688)scale(0.1 -0.1)">
      <use xlink:href="#DejaVuSans-71"/>
      <use xlink:href="#DejaVuSans-20" x="63.476562"/>
      <use xlink:href="#DejaVuSans-4c" x="95.263672"/>
      <use xlink:href="#DejaVuSans-69" x="150.976562"/>
      <use xlink:href="#DejaVuSans-6e" x="178.759766"/>
      <use xlink:href="#DejaVuSans-65" x="242.138672"/>
     </g>
    </g>
    <g id="line2d_83">
     <path d="M 659.7 169.452813 
L 669.7 169.452813 
L 679.7 169.452813 
" style="fill: none; stroke: #d62728; stroke-width: 1.5; stroke-linecap: square"/>
    </g>
    <g id="text_35">
     <!-- Operating Line -->
     <g transform="translate(687.7 172.952813)scale(0.1 -0.1)">
      <use xlink:href="#DejaVuSans-4f"/>
      <use xlink:href="#DejaVuSans-70" x="78.710938"/>
      <use xlink:href="#DejaVuSans-65" x="142.1875"/>
      <use xlink:href="#DejaVuSans-72" x="203.710938"/>
      <use xlink:href="#DejaVuSans-61" x="244.824219"/>
      <use xlink:href="#DejaVuSans-74" x="306.103516"/>
      <use xlink:href="#DejaVuSans-69" x="345.3125"/>
      <use xlink:href="#DejaVuSans-6e" x="373.095703"/>
      <use xlink:href="#DejaVuSans-67" x="436.474609"/>
      <use xlink:href="#DejaVuSans-20" x="499.951172"/>
      <use xlink:href="#DejaVuSans-4c" x="531.738281"/>
      <use xlink:href="#DejaVuSans-69" x="587.451172"/>
      <use xlink:href="#DejaVuSans-6e" x="615.234375"/>
      <use xlink:href="#DejaVuSans-65" x="678.613281"/>
     </g>
    </g>
    <g id="line2d_84">
     <path d="M 659.7 184.130938 
L 669.7 184.130938 
L 679.7 184.130938 
" style="fill: none; stroke: #9467bd; stroke-width: 1.5; stroke-linecap: square"/>
    </g>
    <g id="text_36">
     <!-- Stripping Line -->
     <g transform="translate(687.7 187.630938)scale(0.1 -0.1)">
      <use xlink:href="#DejaVuSans-53"/>
      <use xlink:href="#DejaVuSans-74" x="63.476562"/>
      <use xlink:href="#DejaVuSans-72" x="102.685547"/>
      <use xlink:href="#DejaVuSans-69" x="143.798828"/>
      <use xlink:href="#DejaVuSans-70" x="171.582031"/>
      <use xlink:href="#DejaVuSans-70" x="235.058594"/>
      <use xlink:href="#DejaVuSans-69" x="298.535156"/>
      <use xlink:href="#DejaVuSans-6e" x="326.318359"/>
      <use xlink:href="#DejaVuSans-67" x="389.697266"/>
      <use xlink:href="#DejaVuSans-20" x="453.173828"/>
      <use xlink:href="#DejaVuSans-4c" x="484.960938"/>
      <use xlink:href="#DejaVuSans-69" x="540.673828"/>
      <use xlink:href="#DejaVuSans-6e" x="568.457031"/>
      <use xlink:href="#DejaVuSans-65" x="631.835938"/>
     </g>
    </g>
   </g>
  </g>
  <g id="text_37">
   <!-- Distillate -->
   <g transform="translate(154.44 730.08)scale(0.144 -0.144)">
    <defs>
     <path id="DejaVuSans-Bold-44" d="M 1791 3756 
L 1791 909 
L 2222 909 
Q 2959 909 3348 1275 
Q 3738 1641 3738 2338 
Q 3738 3031 3350 3393 
Q 2963 3756 2222 3756 
L 1791 3756 
z
M 588 4666 
L 1856 4666 
Q 2919 4666 3439 4514 
Q 3959 4363 4331 4000 
Q 4659 3684 4818 3271 
Q 4978 2859 4978 2338 
Q 4978 1809 4818 1395 
Q 4659 981 4331 666 
Q 3956 303 3431 151 
Q 2906 0 1856 0 
L 588 0 
L 588 4666 
z
" transform="scale(0.015625)"/>
     <path id="DejaVuSans-Bold-69" d="M 538 3500 
L 1656 3500 
L 1656 0 
L 538 0 
L 538 3500 
z
M 538 4863 
L 1656 4863 
L 1656 3950 
L 538 3950 
L 538 4863 
z
" transform="scale(0.015625)"/>
     <path id="DejaVuSans-Bold-73" d="M 3272 3391 
L 3272 2541 
Q 2913 2691 2578 2766 
Q 2244 2841 1947 2841 
Q 1628 2841 1473 2761 
Q 1319 2681 1319 2516 
Q 1319 2381 1436 2309 
Q 1553 2238 1856 2203 
L 2053 2175 
Q 2913 2066 3209 1816 
Q 3506 1566 3506 1031 
Q 3506 472 3093 190 
Q 2681 -91 1863 -91 
Q 1516 -91 1145 -36 
Q 775 19 384 128 
L 384 978 
Q 719 816 1070 734 
Q 1422 653 1784 653 
Q 2113 653 2278 743 
Q 2444 834 2444 1013 
Q 2444 1163 2330 1236 
Q 2216 1309 1875 1350 
L 1678 1375 
Q 931 1469 631 1722 
Q 331 1975 331 2491 
Q 331 3047 712 3315 
Q 1094 3584 1881 3584 
Q 2191 3584 2531 3537 
Q 2872 3491 3272 3391 
z
" transform="scale(0.015625)"/>
     <path id="DejaVuSans-Bold-74" d="M 1759 4494 
L 1759 3500 
L 2913 3500 
L 2913 2700 
L 1759 2700 
L 1759 1216 
Q 1759 972 1856 886 
Q 1953 800 2241 800 
L 2816 800 
L 2816 0 
L 1856 0 
Q 1194 0 917 276 
Q 641 553 641 1216 
L 641 2700 
L 84 2700 
L 84 3500 
L 641 3500 
L 641 4494 
L 1759 4494 
z
" transform="scale(0.015625)"/>
     <path id="DejaVuSans-Bold-6c" d="M 538 4863 
L 1656 4863 
L 1656 0 
L 538 0 
L 538 4863 
z
" transform="scale(0.015625)"/>
     <path id="DejaVuSans-Bold-61" d="M 2106 1575 
Q 1756 1575 1579 1456 
Q 1403 1338 1403 1106 
Q 1403 894 1545 773 
Q 1688 653 1941 653 
Q 2256 653 2472 879 
Q 2688 1106 2688 1447 
L 2688 1575 
L 2106 1575 
z
M 3816 1997 
L 3816 0 
L 2688 0 
L 2688 519 
Q 2463 200 2181 54 
Q 1900 -91 1497 -91 
Q 953 -91 614 226 
Q 275 544 275 1050 
Q 275 1666 698 1953 
Q 1122 2241 2028 2241 
L 2688 2241 
L 2688 2328 
Q 2688 2594 2478 2717 
Q 2269 2841 1825 2841 
Q 1466 2841 1156 2769 
Q 847 2697 581 2553 
L 581 3406 
Q 941 3494 1303 3539 
Q 1666 3584 2028 3584 
Q 2975 3584 3395 3211 
Q 3816 2838 3816 1997 
z
" transform="scale(0.015625)"/>
     <path id="DejaVuSans-Bold-65" d="M 4031 1759 
L 4031 1441 
L 1416 1441 
Q 1456 1047 1700 850 
Q 1944 653 2381 653 
Q 2734 653 3104 758 
Q 3475 863 3866 1075 
L 3866 213 
Q 3469 63 3072 -14 
Q 2675 -91 2278 -91 
Q 1328 -91 801 392 
Q 275 875 275 1747 
Q 275 2603 792 3093 
Q 1309 3584 2216 3584 
Q 3041 3584 3536 3087 
Q 4031 2591 4031 1759 
z
M 2881 2131 
Q 2881 2450 2695 2645 
Q 2509 2841 2209 2841 
Q 1884 2841 1681 2658 
Q 1478 2475 1428 2131 
L 2881 2131 
z
" transform="scale(0.015625)"/>
    </defs>
    <use xlink:href="#DejaVuSans-Bold-44"/>
    <use xlink:href="#DejaVuSans-Bold-69" x="83.007812"/>
    <use xlink:href="#DejaVuSans-Bold-73" x="117.285156"/>
    <use xlink:href="#DejaVuSans-Bold-74" x="176.806641"/>
    <use xlink:href="#DejaVuSans-Bold-69" x="224.609375"/>
    <use xlink:href="#DejaVuSans-Bold-6c" x="258.886719"/>
    <use xlink:href="#DejaVuSans-Bold-6c" x="293.164062"/>
    <use xlink:href="#DejaVuSans-Bold-61" x="327.441406"/>
    <use xlink:href="#DejaVuSans-Bold-74" x="394.921875"/>
    <use xlink:href="#DejaVuSans-Bold-65" x="442.724609"/>
   </g>
  </g>
  <g id="text_38">
   <!-- Flow = 114.2[kmol/h] -->
   <g transform="translate(154.44 758.16)scale(0.1 -0.1)">
    <defs>
     <path id="DejaVuSans-46" d="M 628 4666 
L 3309 4666 
L 3309 4134 
L 1259 4134 
L 1259 2759 
L 3109 2759 
L 3109 2228 
L 1259 2228 
L 1259 0 
L 628 0 
L 628 4666 
z
" transform="scale(0.015625)"/>
     <path id="DejaVuSans-77" d="M 269 3500 
L 844 3500 
L 1563 769 
L 2278 3500 
L 2956 3500 
L 3675 769 
L 4391 3500 
L 4966 3500 
L 4050 0 
L 3372 0 
L 2619 2869 
L 1863 0 
L 1184 0 
L 269 3500 
z
" transform="scale(0.015625)"/>
     <path id="DejaVuSans-3d" d="M 678 2906 
L 4684 2906 
L 4684 2381 
L 678 2381 
L 678 2906 
z
M 678 1631 
L 4684 1631 
L 4684 1100 
L 678 1100 
L 678 1631 
z
" transform="scale(0.015625)"/>
     <path id="DejaVuSans-5b" d="M 550 4863 
L 1875 4863 
L 1875 4416 
L 1125 4416 
L 1125 -397 
L 1875 -397 
L 1875 -844 
L 550 -844 
L 550 4863 
z
" transform="scale(0.015625)"/>
     <path id="DejaVuSans-6b" d="M 581 4863 
L 1159 4863 
L 1159 1991 
L 2875 3500 
L 3609 3500 
L 1753 1863 
L 3688 0 
L 2938 0 
L 1159 1709 
L 1159 0 
L 581 0 
L 581 4863 
z
" transform="scale(0.015625)"/>
     <path id="DejaVuSans-2f" d="M 1625 4666 
L 2156 4666 
L 531 -594 
L 0 -594 
L 1625 4666 
z
" transform="scale(0.015625)"/>
     <path id="DejaVuSans-68" d="M 3513 2113 
L 3513 0 
L 2938 0 
L 2938 2094 
Q 2938 2591 2744 2837 
Q 2550 3084 2163 3084 
Q 1697 3084 1428 2787 
Q 1159 2491 1159 1978 
L 1159 0 
L 581 0 
L 581 4863 
L 1159 4863 
L 1159 2956 
Q 1366 3272 1645 3428 
Q 1925 3584 2291 3584 
Q 2894 3584 3203 3211 
Q 3513 2838 3513 2113 
z
" transform="scale(0.015625)"/>
     <path id="DejaVuSans-5d" d="M 1947 4863 
L 1947 -844 
L 622 -844 
L 622 -397 
L 1369 -397 
L 1369 4416 
L 622 4416 
L 622 4863 
L 1947 4863 
z
" transform="scale(0.015625)"/>
    </defs>
    <use xlink:href="#DejaVuSans-46"/>
    <use xlink:href="#DejaVuSans-6c" x="57.519531"/>
    <use xlink:href="#DejaVuSans-6f" x="85.302734"/>
    <use xlink:href="#DejaVuSans-77" x="146.484375"/>
    <use xlink:href="#DejaVuSans-20" x="228.271484"/>
    <use xlink:href="#DejaVuSans-3d" x="260.058594"/>
    <use xlink:href="#DejaVuSans-20" x="343.847656"/>
    <use xlink:href="#DejaVuSans-31" x="375.634766"/>
    <use xlink:href="#DejaVuSans-31" x="439.257812"/>
    <use xlink:href="#DejaVuSans-34" x="502.880859"/>
    <use xlink:href="#DejaVuSans-2e" x="566.503906"/>
    <use xlink:href="#DejaVuSans-32" x="598.291016"/>
    <use xlink:href="#DejaVuSans-5b" x="661.914062"/>
    <use xlink:href="#DejaVuSans-6b" x="700.927734"/>
    <use xlink:href="#DejaVuSans-6d" x="758.837891"/>
    <use xlink:href="#DejaVuSans-6f" x="856.25"/>
    <use xlink:href="#DejaVuSans-6c" x="917.431641"/>
    <use xlink:href="#DejaVuSans-2f" x="945.214844"/>
    <use xlink:href="#DejaVuSans-68" x="978.90625"/>
    <use xlink:href="#DejaVuSans-5d" x="1042.285156"/>
   </g>
  </g>
  <g id="text_39">
   <!-- zTHF = 0.4578[molTHF/mol] -->
   <g transform="translate(154.44 786.24)scale(0.1 -0.1)">
    <defs>
     <path id="DejaVuSans-54" d="M -19 4666 
L 3928 4666 
L 3928 4134 
L 2272 4134 
L 2272 0 
L 1638 0 
L 1638 4134 
L -19 4134 
L -19 4666 
z
" transform="scale(0.015625)"/>
     <path id="DejaVuSans-48" d="M 628 4666 
L 1259 4666 
L 1259 2753 
L 3553 2753 
L 3553 4666 
L 4184 4666 
L 4184 0 
L 3553 0 
L 3553 2222 
L 1259 2222 
L 1259 0 
L 628 0 
L 628 4666 
z
" transform="scale(0.015625)"/>
     <path id="DejaVuSans-35" d="M 691 4666 
L 3169 4666 
L 3169 4134 
L 1269 4134 
L 1269 2991 
Q 1406 3038 1543 3061 
Q 1681 3084 1819 3084 
Q 2600 3084 3056 2656 
Q 3513 2228 3513 1497 
Q 3513 744 3044 326 
Q 2575 -91 1722 -91 
Q 1428 -91 1123 -41 
Q 819 9 494 109 
L 494 744 
Q 775 591 1075 516 
Q 1375 441 1709 441 
Q 2250 441 2565 725 
Q 2881 1009 2881 1497 
Q 2881 1984 2565 2268 
Q 2250 2553 1709 2553 
Q 1456 2553 1204 2497 
Q 953 2441 691 2322 
L 691 4666 
z
" transform="scale(0.015625)"/>
     <path id="DejaVuSans-37" d="M 525 4666 
L 3525 4666 
L 3525 4397 
L 1831 0 
L 1172 0 
L 2766 4134 
L 525 4134 
L 525 4666 
z
" transform="scale(0.015625)"/>
    </defs>
    <use xlink:href="#DejaVuSans-7a"/>
    <use xlink:href="#DejaVuSans-54" x="52.490234"/>
    <use xlink:href="#DejaVuSans-48" x="113.574219"/>
    <use xlink:href="#DejaVuSans-46" x="188.769531"/>
    <use xlink:href="#DejaVuSans-20" x="246.289062"/>
    <use xlink:href="#DejaVuSans-3d" x="278.076172"/>
    <use xlink:href="#DejaVuSans-20" x="361.865234"/>
    <use xlink:href="#DejaVuSans-30" x="393.652344"/>
    <use xlink:href="#DejaVuSans-2e" x="457.275391"/>
    <use xlink:href="#DejaVuSans-34" x="489.0625"/>
    <use xlink:href="#DejaVuSans-35" x="552.685547"/>
    <use xlink:href="#DejaVuSans-37" x="616.308594"/>
    <use xlink:href="#DejaVuSans-38" x="679.931641"/>
    <use xlink:href="#DejaVuSans-5b" x="743.554688"/>
    <use xlink:href="#DejaVuSans-6d" x="782.568359"/>
    <use xlink:href="#DejaVuSans-6f" x="879.980469"/>
    <use xlink:href="#DejaVuSans-6c" x="941.162109"/>
    <use xlink:href="#DejaVuSans-54" x="968.945312"/>
    <use xlink:href="#DejaVuSans-48" x="1030.029297"/>
    <use xlink:href="#DejaVuSans-46" x="1105.224609"/>
    <use xlink:href="#DejaVuSans-2f" x="1162.744141"/>
    <use xlink:href="#DejaVuSans-6d" x="1196.435547"/>
    <use xlink:href="#DejaVuSans-6f" x="1293.847656"/>
    <use xlink:href="#DejaVuSans-6c" x="1355.029297"/>
    <use xlink:href="#DejaVuSans-5d" x="1382.8125"/>
   </g>
  </g>
  <g id="text_40">
   <!-- zMEOH = 0.5421[molMEOH/mol] -->
   <g transform="translate(154.44 814.32)scale(0.1 -0.1)">
    <defs>
     <path id="DejaVuSans-4d" d="M 628 4666 
L 1569 4666 
L 2759 1491 
L 3956 4666 
L 4897 4666 
L 4897 0 
L 4281 0 
L 4281 4097 
L 3078 897 
L 2444 897 
L 1241 4097 
L 1241 0 
L 628 0 
L 628 4666 
z
" transform="scale(0.015625)"/>
    </defs>
    <use xlink:href="#DejaVuSans-7a"/>
    <use xlink:href="#DejaVuSans-4d" x="52.490234"/>
    <use xlink:href="#DejaVuSans-45" x="138.769531"/>
    <use xlink:href="#DejaVuSans-4f" x="201.953125"/>
    <use xlink:href="#DejaVuSans-48" x="280.664062"/>
    <use xlink:href="#DejaVuSans-20" x="355.859375"/>
    <use xlink:href="#DejaVuSans-3d" x="387.646484"/>
    <use xlink:href="#DejaVuSans-20" x="471.435547"/>
    <use xlink:href="#DejaVuSans-30" x="503.222656"/>
    <use xlink:href="#DejaVuSans-2e" x="566.845703"/>
    <use xlink:href="#DejaVuSans-35" x="598.632812"/>
    <use xlink:href="#DejaVuSans-34" x="662.255859"/>
    <use xlink:href="#DejaVuSans-32" x="725.878906"/>
    <use xlink:href="#DejaVuSans-31" x="789.501953"/>
    <use xlink:href="#DejaVuSans-5b" x="853.125"/>
    <use xlink:href="#DejaVuSans-6d" x="892.138672"/>
    <use xlink:href="#DejaVuSans-6f" x="989.550781"/>
    <use xlink:href="#DejaVuSans-6c" x="1050.732422"/>
    <use xlink:href="#DejaVuSans-4d" x="1078.515625"/>
    <use xlink:href="#DejaVuSans-45" x="1164.794922"/>
    <use xlink:href="#DejaVuSans-4f" x="1227.978516"/>
    <use xlink:href="#DejaVuSans-48" x="1306.689453"/>
    <use xlink:href="#DejaVuSans-2f" x="1381.884766"/>
    <use xlink:href="#DejaVuSans-6d" x="1415.576172"/>
    <use xlink:href="#DejaVuSans-6f" x="1512.988281"/>
    <use xlink:href="#DejaVuSans-6c" x="1574.169922"/>
    <use xlink:href="#DejaVuSans-5d" x="1601.953125"/>
   </g>
  </g>
  <g id="text_41">
   <!-- Reflux Ratio = 1.35 -->
   <g transform="translate(154.44 842.4)scale(0.1 -0.1)">
    <defs>
     <path id="DejaVuSans-52" d="M 2841 2188 
Q 3044 2119 3236 1894 
Q 3428 1669 3622 1275 
L 4263 0 
L 3584 0 
L 2988 1197 
Q 2756 1666 2539 1819 
Q 2322 1972 1947 1972 
L 1259 1972 
L 1259 0 
L 628 0 
L 628 4666 
L 2053 4666 
Q 2853 4666 3247 4331 
Q 3641 3997 3641 3322 
Q 3641 2881 3436 2590 
Q 3231 2300 2841 2188 
z
M 1259 4147 
L 1259 2491 
L 2053 2491 
Q 2509 2491 2742 2702 
Q 2975 2913 2975 3322 
Q 2975 3731 2742 3939 
Q 2509 4147 2053 4147 
L 1259 4147 
z
" transform="scale(0.015625)"/>
     <path id="DejaVuSans-66" d="M 2375 4863 
L 2375 4384 
L 1825 4384 
Q 1516 4384 1395 4259 
Q 1275 4134 1275 3809 
L 1275 3500 
L 2222 3500 
L 2222 3053 
L 1275 3053 
L 1275 0 
L 697 0 
L 697 3053 
L 147 3053 
L 147 3500 
L 697 3500 
L 697 3744 
Q 697 4328 969 4595 
Q 1241 4863 1831 4863 
L 2375 4863 
z
" transform="scale(0.015625)"/>
     <path id="DejaVuSans-78" d="M 3513 3500 
L 2247 1797 
L 3578 0 
L 2900 0 
L 1881 1375 
L 863 0 
L 184 0 
L 1544 1831 
L 300 3500 
L 978 3500 
L 1906 2253 
L 2834 3500 
L 3513 3500 
z
" transform="scale(0.015625)"/>
     <path id="DejaVuSans-33" d="M 2597 2516 
Q 3050 2419 3304 2112 
Q 3559 1806 3559 1356 
Q 3559 666 3084 287 
Q 2609 -91 1734 -91 
Q 1441 -91 1130 -33 
Q 819 25 488 141 
L 488 750 
Q 750 597 1062 519 
Q 1375 441 1716 441 
Q 2309 441 2620 675 
Q 2931 909 2931 1356 
Q 2931 1769 2642 2001 
Q 2353 2234 1838 2234 
L 1294 2234 
L 1294 2753 
L 1863 2753 
Q 2328 2753 2575 2939 
Q 2822 3125 2822 3475 
Q 2822 3834 2567 4026 
Q 2313 4219 1838 4219 
Q 1578 4219 1281 4162 
Q 984 4106 628 3988 
L 628 4550 
Q 988 4650 1302 4700 
Q 1616 4750 1894 4750 
Q 2613 4750 3031 4423 
Q 3450 4097 3450 3541 
Q 3450 3153 3228 2886 
Q 3006 2619 2597 2516 
z
" transform="scale(0.015625)"/>
    </defs>
    <use xlink:href="#DejaVuSans-52"/>
    <use xlink:href="#DejaVuSans-65" x="64.982422"/>
    <use xlink:href="#DejaVuSans-66" x="126.505859"/>
    <use xlink:href="#DejaVuSans-6c" x="161.710938"/>
    <use xlink:href="#DejaVuSans-75" x="189.494141"/>
    <use xlink:href="#DejaVuSans-78" x="252.873047"/>
    <use xlink:href="#DejaVuSans-20" x="312.052734"/>
    <use xlink:href="#DejaVuSans-52" x="343.839844"/>
    <use xlink:href="#DejaVuSans-61" x="411.072266"/>
    <use xlink:href="#DejaVuSans-74" x="472.351562"/>
    <use xlink:href="#DejaVuSans-69" x="511.560547"/>
    <use xlink:href="#DejaVuSans-6f" x="539.34375"/>
    <use xlink:href="#DejaVuSans-20" x="600.525391"/>
    <use xlink:href="#DejaVuSans-3d" x="632.3125"/>
    <use xlink:href="#DejaVuSans-20" x="716.101562"/>
    <use xlink:href="#DejaVuSans-31" x="747.888672"/>
    <use xlink:href="#DejaVuSans-2e" x="811.511719"/>
    <use xlink:href="#DejaVuSans-33" x="843.298828"/>
    <use xlink:href="#DejaVuSans-35" x="906.921875"/>
   </g>
  </g>
  <g id="text_42">
   <!-- Condenser Duties =1445[kW] -->
   <g transform="translate(154.44 870.48)scale(0.1 -0.1)">
    <defs>
     <path id="DejaVuSans-64" d="M 2906 2969 
L 2906 4863 
L 3481 4863 
L 3481 0 
L 2906 0 
L 2906 525 
Q 2725 213 2448 61 
Q 2172 -91 1784 -91 
Q 1150 -91 751 415 
Q 353 922 353 1747 
Q 353 2572 751 3078 
Q 1150 3584 1784 3584 
Q 2172 3584 2448 3432 
Q 2725 3281 2906 2969 
z
M 947 1747 
Q 947 1113 1208 752 
Q 1469 391 1925 391 
Q 2381 391 2643 752 
Q 2906 1113 2906 1747 
Q 2906 2381 2643 2742 
Q 2381 3103 1925 3103 
Q 1469 3103 1208 2742 
Q 947 2381 947 1747 
z
" transform="scale(0.015625)"/>
     <path id="DejaVuSans-73" d="M 2834 3397 
L 2834 2853 
Q 2591 2978 2328 3040 
Q 2066 3103 1784 3103 
Q 1356 3103 1142 2972 
Q 928 2841 928 2578 
Q 928 2378 1081 2264 
Q 1234 2150 1697 2047 
L 1894 2003 
Q 2506 1872 2764 1633 
Q 3022 1394 3022 966 
Q 3022 478 2636 193 
Q 2250 -91 1575 -91 
Q 1294 -91 989 -36 
Q 684 19 347 128 
L 347 722 
Q 666 556 975 473 
Q 1284 391 1588 391 
Q 1994 391 2212 530 
Q 2431 669 2431 922 
Q 2431 1156 2273 1281 
Q 2116 1406 1581 1522 
L 1381 1569 
Q 847 1681 609 1914 
Q 372 2147 372 2553 
Q 372 3047 722 3315 
Q 1072 3584 1716 3584 
Q 2034 3584 2315 3537 
Q 2597 3491 2834 3397 
z
" transform="scale(0.015625)"/>
     <path id="DejaVuSans-44" d="M 1259 4147 
L 1259 519 
L 2022 519 
Q 2988 519 3436 956 
Q 3884 1394 3884 2338 
Q 3884 3275 3436 3711 
Q 2988 4147 2022 4147 
L 1259 4147 
z
M 628 4666 
L 1925 4666 
Q 3281 4666 3915 4102 
Q 4550 3538 4550 2338 
Q 4550 1131 3912 565 
Q 3275 0 1925 0 
L 628 0 
L 628 4666 
z
" transform="scale(0.015625)"/>
     <path id="DejaVuSans-57" d="M 213 4666 
L 850 4666 
L 1831 722 
L 2809 4666 
L 3519 4666 
L 4500 722 
L 5478 4666 
L 6119 4666 
L 4947 0 
L 4153 0 
L 3169 4050 
L 2175 0 
L 1381 0 
L 213 4666 
z
" transform="scale(0.015625)"/>
    </defs>
    <use xlink:href="#DejaVuSans-43"/>
    <use xlink:href="#DejaVuSans-6f" x="69.824219"/>
    <use xlink:href="#DejaVuSans-6e" x="131.005859"/>
    <use xlink:href="#DejaVuSans-64" x="194.384766"/>
    <use xlink:href="#DejaVuSans-65" x="257.861328"/>
    <use xlink:href="#DejaVuSans-6e" x="319.384766"/>
    <use xlink:href="#DejaVuSans-73" x="382.763672"/>
    <use xlink:href="#DejaVuSans-65" x="434.863281"/>
    <use xlink:href="#DejaVuSans-72" x="496.386719"/>
    <use xlink:href="#DejaVuSans-20" x="537.5"/>
    <use xlink:href="#DejaVuSans-44" x="569.287109"/>
    <use xlink:href="#DejaVuSans-75" x="646.289062"/>
    <use xlink:href="#DejaVuSans-74" x="709.667969"/>
    <use xlink:href="#DejaVuSans-69" x="748.876953"/>
    <use xlink:href="#DejaVuSans-65" x="776.660156"/>
    <use xlink:href="#DejaVuSans-73" x="838.183594"/>
    <use xlink:href="#DejaVuSans-20" x="890.283203"/>
    <use xlink:href="#DejaVuSans-3d" x="922.070312"/>
    <use xlink:href="#DejaVuSans-31" x="1005.859375"/>
    <use xlink:href="#DejaVuSans-34" x="1069.482422"/>
    <use xlink:href="#DejaVuSans-34" x="1133.105469"/>
    <use xlink:href="#DejaVuSans-35" x="1196.728516"/>
    <use xlink:href="#DejaVuSans-5b" x="1260.351562"/>
    <use xlink:href="#DejaVuSans-6b" x="1299.365234"/>
    <use xlink:href="#DejaVuSans-57" x="1357.275391"/>
    <use xlink:href="#DejaVuSans-5d" x="1456.152344"/>
   </g>
  </g>
  <g id="text_43">
   <!-- Bottoms -->
   <g transform="translate(356.4 730.08)scale(0.144 -0.144)">
    <defs>
     <path id="DejaVuSans-Bold-42" d="M 2456 2859 
Q 2741 2859 2887 2984 
Q 3034 3109 3034 3353 
Q 3034 3594 2887 3720 
Q 2741 3847 2456 3847 
L 1791 3847 
L 1791 2859 
L 2456 2859 
z
M 2497 819 
Q 2859 819 3042 972 
Q 3225 1125 3225 1434 
Q 3225 1738 3044 1889 
Q 2863 2041 2497 2041 
L 1791 2041 
L 1791 819 
L 2497 819 
z
M 3616 2497 
Q 4003 2384 4215 2081 
Q 4428 1778 4428 1338 
Q 4428 663 3972 331 
Q 3516 0 2584 0 
L 588 0 
L 588 4666 
L 2394 4666 
Q 3366 4666 3802 4372 
Q 4238 4078 4238 3431 
Q 4238 3091 4078 2852 
Q 3919 2613 3616 2497 
z
" transform="scale(0.015625)"/>
     <path id="DejaVuSans-Bold-6f" d="M 2203 2784 
Q 1831 2784 1636 2517 
Q 1441 2250 1441 1747 
Q 1441 1244 1636 976 
Q 1831 709 2203 709 
Q 2569 709 2762 976 
Q 2956 1244 2956 1747 
Q 2956 2250 2762 2517 
Q 2569 2784 2203 2784 
z
M 2203 3584 
Q 3106 3584 3614 3096 
Q 4122 2609 4122 1747 
Q 4122 884 3614 396 
Q 3106 -91 2203 -91 
Q 1297 -91 786 396 
Q 275 884 275 1747 
Q 275 2609 786 3096 
Q 1297 3584 2203 3584 
z
" transform="scale(0.015625)"/>
     <path id="DejaVuSans-Bold-6d" d="M 3781 2919 
Q 3994 3244 4286 3414 
Q 4578 3584 4928 3584 
Q 5531 3584 5847 3212 
Q 6163 2841 6163 2131 
L 6163 0 
L 5038 0 
L 5038 1825 
Q 5041 1866 5042 1909 
Q 5044 1953 5044 2034 
Q 5044 2406 4934 2573 
Q 4825 2741 4581 2741 
Q 4263 2741 4089 2478 
Q 3916 2216 3909 1719 
L 3909 0 
L 2784 0 
L 2784 1825 
Q 2784 2406 2684 2573 
Q 2584 2741 2328 2741 
Q 2006 2741 1831 2477 
Q 1656 2213 1656 1722 
L 1656 0 
L 531 0 
L 531 3500 
L 1656 3500 
L 1656 2988 
Q 1863 3284 2130 3434 
Q 2397 3584 2719 3584 
Q 3081 3584 3359 3409 
Q 3638 3234 3781 2919 
z
" transform="scale(0.015625)"/>
    </defs>
    <use xlink:href="#DejaVuSans-Bold-42"/>
    <use xlink:href="#DejaVuSans-Bold-6f" x="76.220703"/>
    <use xlink:href="#DejaVuSans-Bold-74" x="144.921875"/>
    <use xlink:href="#DejaVuSans-Bold-74" x="192.724609"/>
    <use xlink:href="#DejaVuSans-Bold-6f" x="240.527344"/>
    <use xlink:href="#DejaVuSans-Bold-6d" x="309.228516"/>
    <use xlink:href="#DejaVuSans-Bold-73" x="413.427734"/>
   </g>
  </g>
  <g id="text_44">
   <!-- Flow = 82.79[kmol/h] -->
   <g transform="translate(356.4 758.16)scale(0.1 -0.1)">
    <defs>
     <path id="DejaVuSans-39" d="M 703 97 
L 703 672 
Q 941 559 1184 500 
Q 1428 441 1663 441 
Q 2288 441 2617 861 
Q 2947 1281 2994 2138 
Q 2813 1869 2534 1725 
Q 2256 1581 1919 1581 
Q 1219 1581 811 2004 
Q 403 2428 403 3163 
Q 403 3881 828 4315 
Q 1253 4750 1959 4750 
Q 2769 4750 3195 4129 
Q 3622 3509 3622 2328 
Q 3622 1225 3098 567 
Q 2575 -91 1691 -91 
Q 1453 -91 1209 -44 
Q 966 3 703 97 
z
M 1959 2075 
Q 2384 2075 2632 2365 
Q 2881 2656 2881 3163 
Q 2881 3666 2632 3958 
Q 2384 4250 1959 4250 
Q 1534 4250 1286 3958 
Q 1038 3666 1038 3163 
Q 1038 2656 1286 2365 
Q 1534 2075 1959 2075 
z
" transform="scale(0.015625)"/>
    </defs>
    <use xlink:href="#DejaVuSans-46"/>
    <use xlink:href="#DejaVuSans-6c" x="57.519531"/>
    <use xlink:href="#DejaVuSans-6f" x="85.302734"/>
    <use xlink:href="#DejaVuSans-77" x="146.484375"/>
    <use xlink:href="#DejaVuSans-20" x="228.271484"/>
    <use xlink:href="#DejaVuSans-3d" x="260.058594"/>
    <use xlink:href="#DejaVuSans-20" x="343.847656"/>
    <use xlink:href="#DejaVuSans-38" x="375.634766"/>
    <use xlink:href="#DejaVuSans-32" x="439.257812"/>
    <use xlink:href="#DejaVuSans-2e" x="502.880859"/>
    <use xlink:href="#DejaVuSans-37" x="534.667969"/>
    <use xlink:href="#DejaVuSans-39" x="598.291016"/>
    <use xlink:href="#DejaVuSans-5b" x="661.914062"/>
    <use xlink:href="#DejaVuSans-6b" x="700.927734"/>
    <use xlink:href="#DejaVuSans-6d" x="758.837891"/>
    <use xlink:href="#DejaVuSans-6f" x="856.25"/>
    <use xlink:href="#DejaVuSans-6c" x="917.431641"/>
    <use xlink:href="#DejaVuSans-2f" x="945.214844"/>
    <use xlink:href="#DejaVuSans-68" x="978.90625"/>
    <use xlink:href="#DejaVuSans-5d" x="1042.285156"/>
   </g>
  </g>
  <g id="text_45">
   <!-- zTHF = 0.01[molTHF/mol] -->
   <g transform="translate(356.4 786.24)scale(0.1 -0.1)">
    <use xlink:href="#DejaVuSans-7a"/>
    <use xlink:href="#DejaVuSans-54" x="52.490234"/>
    <use xlink:href="#DejaVuSans-48" x="113.574219"/>
    <use xlink:href="#DejaVuSans-46" x="188.769531"/>
    <use xlink:href="#DejaVuSans-20" x="246.289062"/>
    <use xlink:href="#DejaVuSans-3d" x="278.076172"/>
    <use xlink:href="#DejaVuSans-20" x="361.865234"/>
    <use xlink:href="#DejaVuSans-30" x="393.652344"/>
    <use xlink:href="#DejaVuSans-2e" x="457.275391"/>
    <use xlink:href="#DejaVuSans-30" x="489.0625"/>
    <use xlink:href="#DejaVuSans-31" x="552.685547"/>
    <use xlink:href="#DejaVuSans-5b" x="616.308594"/>
    <use xlink:href="#DejaVuSans-6d" x="655.322266"/>
    <use xlink:href="#DejaVuSans-6f" x="752.734375"/>
    <use xlink:href="#DejaVuSans-6c" x="813.916016"/>
    <use xlink:href="#DejaVuSans-54" x="841.699219"/>
    <use xlink:href="#DejaVuSans-48" x="902.783203"/>
    <use xlink:href="#DejaVuSans-46" x="977.978516"/>
    <use xlink:href="#DejaVuSans-2f" x="1035.498047"/>
    <use xlink:href="#DejaVuSans-6d" x="1069.189453"/>
    <use xlink:href="#DejaVuSans-6f" x="1166.601562"/>
    <use xlink:href="#DejaVuSans-6c" x="1227.783203"/>
    <use xlink:href="#DejaVuSans-5d" x="1255.566406"/>
   </g>
  </g>
  <g id="text_46">
   <!-- zMEOH = 0.99[molMEOH/mol] -->
   <g transform="translate(356.4 814.32)scale(0.1 -0.1)">
    <use xlink:href="#DejaVuSans-7a"/>
    <use xlink:href="#DejaVuSans-4d" x="52.490234"/>
    <use xlink:href="#DejaVuSans-45" x="138.769531"/>
    <use xlink:href="#DejaVuSans-4f" x="201.953125"/>
    <use xlink:href="#DejaVuSans-48" x="280.664062"/>
    <use xlink:href="#DejaVuSans-20" x="355.859375"/>
    <use xlink:href="#DejaVuSans-3d" x="387.646484"/>
    <use xlink:href="#DejaVuSans-20" x="471.435547"/>
    <use xlink:href="#DejaVuSans-30" x="503.222656"/>
    <use xlink:href="#DejaVuSans-2e" x="566.845703"/>
    <use xlink:href="#DejaVuSans-39" x="598.632812"/>
    <use xlink:href="#DejaVuSans-39" x="662.255859"/>
    <use xlink:href="#DejaVuSans-5b" x="725.878906"/>
    <use xlink:href="#DejaVuSans-6d" x="764.892578"/>
    <use xlink:href="#DejaVuSans-6f" x="862.304688"/>
    <use xlink:href="#DejaVuSans-6c" x="923.486328"/>
    <use xlink:href="#DejaVuSans-4d" x="951.269531"/>
    <use xlink:href="#DejaVuSans-45" x="1037.548828"/>
    <use xlink:href="#DejaVuSans-4f" x="1100.732422"/>
    <use xlink:href="#DejaVuSans-48" x="1179.443359"/>
    <use xlink:href="#DejaVuSans-2f" x="1254.638672"/>
    <use xlink:href="#DejaVuSans-6d" x="1288.330078"/>
    <use xlink:href="#DejaVuSans-6f" x="1385.742188"/>
    <use xlink:href="#DejaVuSans-6c" x="1446.923828"/>
    <use xlink:href="#DejaVuSans-5d" x="1474.707031"/>
   </g>
  </g>
  <g id="text_47">
   <!-- Boilup Ratio = 3.30 -->
   <g transform="translate(356.4 842.4)scale(0.1 -0.1)">
    <defs>
     <path id="DejaVuSans-42" d="M 1259 2228 
L 1259 519 
L 2272 519 
Q 2781 519 3026 730 
Q 3272 941 3272 1375 
Q 3272 1813 3026 2020 
Q 2781 2228 2272 2228 
L 1259 2228 
z
M 1259 4147 
L 1259 2741 
L 2194 2741 
Q 2656 2741 2882 2914 
Q 3109 3088 3109 3444 
Q 3109 3797 2882 3972 
Q 2656 4147 2194 4147 
L 1259 4147 
z
M 628 4666 
L 2241 4666 
Q 2963 4666 3353 4366 
Q 3744 4066 3744 3513 
Q 3744 3084 3544 2831 
Q 3344 2578 2956 2516 
Q 3422 2416 3680 2098 
Q 3938 1781 3938 1306 
Q 3938 681 3513 340 
Q 3088 0 2303 0 
L 628 0 
L 628 4666 
z
" transform="scale(0.015625)"/>
    </defs>
    <use xlink:href="#DejaVuSans-42"/>
    <use xlink:href="#DejaVuSans-6f" x="68.603516"/>
    <use xlink:href="#DejaVuSans-69" x="129.785156"/>
    <use xlink:href="#DejaVuSans-6c" x="157.568359"/>
    <use xlink:href="#DejaVuSans-75" x="185.351562"/>
    <use xlink:href="#DejaVuSans-70" x="248.730469"/>
    <use xlink:href="#DejaVuSans-20" x="312.207031"/>
    <use xlink:href="#DejaVuSans-52" x="343.994141"/>
    <use xlink:href="#DejaVuSans-61" x="411.226562"/>
    <use xlink:href="#DejaVuSans-74" x="472.505859"/>
    <use xlink:href="#DejaVuSans-69" x="511.714844"/>
    <use xlink:href="#DejaVuSans-6f" x="539.498047"/>
    <use xlink:href="#DejaVuSans-20" x="600.679688"/>
    <use xlink:href="#DejaVuSans-3d" x="632.466797"/>
    <use xlink:href="#DejaVuSans-20" x="716.255859"/>
    <use xlink:href="#DejaVuSans-33" x="748.042969"/>
    <use xlink:href="#DejaVuSans-2e" x="811.666016"/>
    <use xlink:href="#DejaVuSans-33" x="843.453125"/>
    <use xlink:href="#DejaVuSans-30" x="907.076172"/>
   </g>
  </g>
  <g id="text_48">
   <!-- Evaporator Duties =2833[kW] -->
   <g transform="translate(356.4 870.48)scale(0.1 -0.1)">
    <defs>
     <path id="DejaVuSans-76" d="M 191 3500 
L 800 3500 
L 1894 563 
L 2988 3500 
L 3597 3500 
L 2284 0 
L 1503 0 
L 191 3500 
z
" transform="scale(0.015625)"/>
    </defs>
    <use xlink:href="#DejaVuSans-45"/>
    <use xlink:href="#DejaVuSans-76" x="63.183594"/>
    <use xlink:href="#DejaVuSans-61" x="122.363281"/>
    <use xlink:href="#DejaVuSans-70" x="183.642578"/>
    <use xlink:href="#DejaVuSans-6f" x="247.119141"/>
    <use xlink:href="#DejaVuSans-72" x="308.300781"/>
    <use xlink:href="#DejaVuSans-61" x="349.414062"/>
    <use xlink:href="#DejaVuSans-74" x="410.693359"/>
    <use xlink:href="#DejaVuSans-6f" x="449.902344"/>
    <use xlink:href="#DejaVuSans-72" x="511.083984"/>
    <use xlink:href="#DejaVuSans-20" x="552.197266"/>
    <use xlink:href="#DejaVuSans-44" x="583.984375"/>
    <use xlink:href="#DejaVuSans-75" x="660.986328"/>
    <use xlink:href="#DejaVuSans-74" x="724.365234"/>
    <use xlink:href="#DejaVuSans-69" x="763.574219"/>
    <use xlink:href="#DejaVuSans-65" x="791.357422"/>
    <use xlink:href="#DejaVuSans-73" x="852.880859"/>
    <use xlink:href="#DejaVuSans-20" x="904.980469"/>
    <use xlink:href="#DejaVuSans-3d" x="936.767578"/>
    <use xlink:href="#DejaVuSans-32" x="1020.556641"/>
    <use xlink:href="#DejaVuSans-38" x="1084.179688"/>
    <use xlink:href="#DejaVuSans-33" x="1147.802734"/>
    <use xlink:href="#DejaVuSans-33" x="1211.425781"/>
    <use xlink:href="#DejaVuSans-5b" x="1275.048828"/>
    <use xlink:href="#DejaVuSans-6b" x="1314.0625"/>
    <use xlink:href="#DejaVuSans-57" x="1371.972656"/>
    <use xlink:href="#DejaVuSans-5d" x="1470.849609"/>
   </g>
  </g>
  <g id="text_49">
   <!-- Recycle -->
   <g transform="translate(653.4 730.08)scale(0.144 -0.144)">
    <defs>
     <path id="DejaVuSans-Bold-52" d="M 2297 2597 
Q 2675 2597 2839 2737 
Q 3003 2878 3003 3200 
Q 3003 3519 2839 3656 
Q 2675 3794 2297 3794 
L 1791 3794 
L 1791 2597 
L 2297 2597 
z
M 1791 1766 
L 1791 0 
L 588 0 
L 588 4666 
L 2425 4666 
Q 3347 4666 3776 4356 
Q 4206 4047 4206 3378 
Q 4206 2916 3982 2619 
Q 3759 2322 3309 2181 
Q 3556 2125 3751 1926 
Q 3947 1728 4147 1325 
L 4800 0 
L 3519 0 
L 2950 1159 
Q 2778 1509 2601 1637 
Q 2425 1766 2131 1766 
L 1791 1766 
z
" transform="scale(0.015625)"/>
     <path id="DejaVuSans-Bold-63" d="M 3366 3391 
L 3366 2478 
Q 3138 2634 2908 2709 
Q 2678 2784 2431 2784 
Q 1963 2784 1702 2511 
Q 1441 2238 1441 1747 
Q 1441 1256 1702 982 
Q 1963 709 2431 709 
Q 2694 709 2930 787 
Q 3166 866 3366 1019 
L 3366 103 
Q 3103 6 2833 -42 
Q 2563 -91 2291 -91 
Q 1344 -91 809 395 
Q 275 881 275 1747 
Q 275 2613 809 3098 
Q 1344 3584 2291 3584 
Q 2566 3584 2833 3536 
Q 3100 3488 3366 3391 
z
" transform="scale(0.015625)"/>
     <path id="DejaVuSans-Bold-79" d="M 78 3500 
L 1197 3500 
L 2138 1125 
L 2938 3500 
L 4056 3500 
L 2584 -331 
Q 2363 -916 2067 -1148 
Q 1772 -1381 1288 -1381 
L 641 -1381 
L 641 -647 
L 991 -647 
Q 1275 -647 1404 -556 
Q 1534 -466 1606 -231 
L 1638 -134 
L 78 3500 
z
" transform="scale(0.015625)"/>
    </defs>
    <use xlink:href="#DejaVuSans-Bold-52"/>
    <use xlink:href="#DejaVuSans-Bold-65" x="77.001953"/>
    <use xlink:href="#DejaVuSans-Bold-63" x="144.824219"/>
    <use xlink:href="#DejaVuSans-Bold-79" x="204.101562"/>
    <use xlink:href="#DejaVuSans-Bold-63" x="269.287109"/>
    <use xlink:href="#DejaVuSans-Bold-6c" x="328.564453"/>
    <use xlink:href="#DejaVuSans-Bold-65" x="362.841797"/>
   </g>
  </g>
  <g id="text_50">
   <!-- Flow = 87.48[kmol/h] -->
   <g transform="translate(653.4 758.16)scale(0.1 -0.1)">
    <use xlink:href="#DejaVuSans-46"/>
    <use xlink:href="#DejaVuSans-6c" x="57.519531"/>
    <use xlink:href="#DejaVuSans-6f" x="85.302734"/>
    <use xlink:href="#DejaVuSans-77" x="146.484375"/>
    <use xlink:href="#DejaVuSans-20" x="228.271484"/>
    <use xlink:href="#DejaVuSans-3d" x="260.058594"/>
    <use xlink:href="#DejaVuSans-20" x="343.847656"/>
    <use xlink:href="#DejaVuSans-38" x="375.634766"/>
    <use xlink:href="#DejaVuSans-37" x="439.257812"/>
    <use xlink:href="#DejaVuSans-2e" x="502.880859"/>
    <use xlink:href="#DejaVuSans-34" x="534.667969"/>
    <use xlink:href="#DejaVuSans-38" x="598.291016"/>
    <use xlink:href="#DejaVuSans-5b" x="661.914062"/>
    <use xlink:href="#DejaVuSans-6b" x="700.927734"/>
    <use xlink:href="#DejaVuSans-6d" x="758.837891"/>
    <use xlink:href="#DejaVuSans-6f" x="856.25"/>
    <use xlink:href="#DejaVuSans-6c" x="917.431641"/>
    <use xlink:href="#DejaVuSans-2f" x="945.214844"/>
    <use xlink:href="#DejaVuSans-68" x="978.90625"/>
    <use xlink:href="#DejaVuSans-5d" x="1042.285156"/>
   </g>
  </g>
  <g id="text_51">
   <!-- zTHF = 0.2944[molTHF/mol] -->
   <g transform="translate(653.4 786.24)scale(0.1 -0.1)">
    <use xlink:href="#DejaVuSans-7a"/>
    <use xlink:href="#DejaVuSans-54" x="52.490234"/>
    <use xlink:href="#DejaVuSans-48" x="113.574219"/>
    <use xlink:href="#DejaVuSans-46" x="188.769531"/>
    <use xlink:href="#DejaVuSans-20" x="246.289062"/>
    <use xlink:href="#DejaVuSans-3d" x="278.076172"/>
    <use xlink:href="#DejaVuSans-20" x="361.865234"/>
    <use xlink:href="#DejaVuSans-30" x="393.652344"/>
    <use xlink:href="#DejaVuSans-2e" x="457.275391"/>
    <use xlink:href="#DejaVuSans-32" x="489.0625"/>
    <use xlink:href="#DejaVuSans-39" x="552.685547"/>
    <use xlink:href="#DejaVuSans-34" x="616.308594"/>
    <use xlink:href="#DejaVuSans-34" x="679.931641"/>
    <use xlink:href="#DejaVuSans-5b" x="743.554688"/>
    <use xlink:href="#DejaVuSans-6d" x="782.568359"/>
    <use xlink:href="#DejaVuSans-6f" x="879.980469"/>
    <use xlink:href="#DejaVuSans-6c" x="941.162109"/>
    <use xlink:href="#DejaVuSans-54" x="968.945312"/>
    <use xlink:href="#DejaVuSans-48" x="1030.029297"/>
    <use xlink:href="#DejaVuSans-46" x="1105.224609"/>
    <use xlink:href="#DejaVuSans-2f" x="1162.744141"/>
    <use xlink:href="#DejaVuSans-6d" x="1196.435547"/>
    <use xlink:href="#DejaVuSans-6f" x="1293.847656"/>
    <use xlink:href="#DejaVuSans-6c" x="1355.029297"/>
    <use xlink:href="#DejaVuSans-5d" x="1382.8125"/>
   </g>
  </g>
  <g id="text_52">
   <!-- zMEOH = 0.7055[molMEOH/mol] -->
   <g transform="translate(653.4 814.32)scale(0.1 -0.1)">
    <use xlink:href="#DejaVuSans-7a"/>
    <use xlink:href="#DejaVuSans-4d" x="52.490234"/>
    <use xlink:href="#DejaVuSans-45" x="138.769531"/>
    <use xlink:href="#DejaVuSans-4f" x="201.953125"/>
    <use xlink:href="#DejaVuSans-48" x="280.664062"/>
    <use xlink:href="#DejaVuSans-20" x="355.859375"/>
    <use xlink:href="#DejaVuSans-3d" x="387.646484"/>
    <use xlink:href="#DejaVuSans-20" x="471.435547"/>
    <use xlink:href="#DejaVuSans-30" x="503.222656"/>
    <use xlink:href="#DejaVuSans-2e" x="566.845703"/>
    <use xlink:href="#DejaVuSans-37" x="598.632812"/>
    <use xlink:href="#DejaVuSans-30" x="662.255859"/>
    <use xlink:href="#DejaVuSans-35" x="725.878906"/>
    <use xlink:href="#DejaVuSans-35" x="789.501953"/>
    <use xlink:href="#DejaVuSans-5b" x="853.125"/>
    <use xlink:href="#DejaVuSans-6d" x="892.138672"/>
    <use xlink:href="#DejaVuSans-6f" x="989.550781"/>
    <use xlink:href="#DejaVuSans-6c" x="1050.732422"/>
    <use xlink:href="#DejaVuSans-4d" x="1078.515625"/>
    <use xlink:href="#DejaVuSans-45" x="1164.794922"/>
    <use xlink:href="#DejaVuSans-4f" x="1227.978516"/>
    <use xlink:href="#DejaVuSans-48" x="1306.689453"/>
    <use xlink:href="#DejaVuSans-2f" x="1381.884766"/>
    <use xlink:href="#DejaVuSans-6d" x="1415.576172"/>
    <use xlink:href="#DejaVuSans-6f" x="1512.988281"/>
    <use xlink:href="#DejaVuSans-6c" x="1574.169922"/>
    <use xlink:href="#DejaVuSans-5d" x="1601.953125"/>
   </g>
  </g>
  <g id="text_53">
   <!-- Reflux Ratio = 1.32 -->
   <g transform="translate(653.4 842.4)scale(0.1 -0.1)">
    <use xlink:href="#DejaVuSans-52"/>
    <use xlink:href="#DejaVuSans-65" x="64.982422"/>
    <use xlink:href="#DejaVuSans-66" x="126.505859"/>
    <use xlink:href="#DejaVuSans-6c" x="161.710938"/>
    <use xlink:href="#DejaVuSans-75" x="189.494141"/>
    <use xlink:href="#DejaVuSans-78" x="252.873047"/>
    <use xlink:href="#DejaVuSans-20" x="312.052734"/>
    <use xlink:href="#DejaVuSans-52" x="343.839844"/>
    <use xlink:href="#DejaVuSans-61" x="411.072266"/>
    <use xlink:href="#DejaVuSans-74" x="472.351562"/>
    <use xlink:href="#DejaVuSans-69" x="511.560547"/>
    <use xlink:href="#DejaVuSans-6f" x="539.34375"/>
    <use xlink:href="#DejaVuSans-20" x="600.525391"/>
    <use xlink:href="#DejaVuSans-3d" x="632.3125"/>
    <use xlink:href="#DejaVuSans-20" x="716.101562"/>
    <use xlink:href="#DejaVuSans-31" x="747.888672"/>
    <use xlink:href="#DejaVuSans-2e" x="811.511719"/>
    <use xlink:href="#DejaVuSans-33" x="843.298828"/>
    <use xlink:href="#DejaVuSans-32" x="906.921875"/>
   </g>
  </g>
  <g id="text_54">
   <!-- Condenser Duties = 1123[kW] -->
   <g transform="translate(653.4 870.48)scale(0.1 -0.1)">
    <use xlink:href="#DejaVuSans-43"/>
    <use xlink:href="#DejaVuSans-6f" x="69.824219"/>
    <use xlink:href="#DejaVuSans-6e" x="131.005859"/>
    <use xlink:href="#DejaVuSans-64" x="194.384766"/>
    <use xlink:href="#DejaVuSans-65" x="257.861328"/>
    <use xlink:href="#DejaVuSans-6e" x="319.384766"/>
    <use xlink:href="#DejaVuSans-73" x="382.763672"/>
    <use xlink:href="#DejaVuSans-65" x="434.863281"/>
    <use xlink:href="#DejaVuSans-72" x="496.386719"/>
    <use xlink:href="#DejaVuSans-20" x="537.5"/>
    <use xlink:href="#DejaVuSans-44" x="569.287109"/>
    <use xlink:href="#DejaVuSans-75" x="646.289062"/>
    <use xlink:href="#DejaVuSans-74" x="709.667969"/>
    <use xlink:href="#DejaVuSans-69" x="748.876953"/>
    <use xlink:href="#DejaVuSans-65" x="776.660156"/>
    <use xlink:href="#DejaVuSans-73" x="838.183594"/>
    <use xlink:href="#DejaVuSans-20" x="890.283203"/>
    <use xlink:href="#DejaVuSans-3d" x="922.070312"/>
    <use xlink:href="#DejaVuSans-20" x="1005.859375"/>
    <use xlink:href="#DejaVuSans-31" x="1037.646484"/>
    <use xlink:href="#DejaVuSans-31" x="1101.269531"/>
    <use xlink:href="#DejaVuSans-32" x="1164.892578"/>
    <use xlink:href="#DejaVuSans-33" x="1228.515625"/>
    <use xlink:href="#DejaVuSans-5b" x="1292.138672"/>
    <use xlink:href="#DejaVuSans-6b" x="1331.152344"/>
    <use xlink:href="#DejaVuSans-57" x="1389.0625"/>
    <use xlink:href="#DejaVuSans-5d" x="1487.939453"/>
   </g>
  </g>
  <g id="text_55">
   <!-- Bottoms -->
   <g transform="translate(855.36 730.08)scale(0.144 -0.144)">
    <use xlink:href="#DejaVuSans-Bold-42"/>
    <use xlink:href="#DejaVuSans-Bold-6f" x="76.220703"/>
    <use xlink:href="#DejaVuSans-Bold-74" x="144.921875"/>
    <use xlink:href="#DejaVuSans-Bold-74" x="192.724609"/>
    <use xlink:href="#DejaVuSans-Bold-6f" x="240.527344"/>
    <use xlink:href="#DejaVuSans-Bold-6d" x="309.228516"/>
    <use xlink:href="#DejaVuSans-Bold-73" x="413.427734"/>
   </g>
  </g>
  <g id="text_56">
   <!-- Flow = 26.72[kmol/h] -->
   <g transform="translate(855.36 758.16)scale(0.1 -0.1)">
    <use xlink:href="#DejaVuSans-46"/>
    <use xlink:href="#DejaVuSans-6c" x="57.519531"/>
    <use xlink:href="#DejaVuSans-6f" x="85.302734"/>
    <use xlink:href="#DejaVuSans-77" x="146.484375"/>
    <use xlink:href="#DejaVuSans-20" x="228.271484"/>
    <use xlink:href="#DejaVuSans-3d" x="260.058594"/>
    <use xlink:href="#DejaVuSans-20" x="343.847656"/>
    <use xlink:href="#DejaVuSans-32" x="375.634766"/>
    <use xlink:href="#DejaVuSans-36" x="439.257812"/>
    <use xlink:href="#DejaVuSans-2e" x="502.880859"/>
    <use xlink:href="#DejaVuSans-37" x="534.667969"/>
    <use xlink:href="#DejaVuSans-32" x="598.291016"/>
    <use xlink:href="#DejaVuSans-5b" x="661.914062"/>
    <use xlink:href="#DejaVuSans-6b" x="700.927734"/>
    <use xlink:href="#DejaVuSans-6d" x="758.837891"/>
    <use xlink:href="#DejaVuSans-6f" x="856.25"/>
    <use xlink:href="#DejaVuSans-6c" x="917.431641"/>
    <use xlink:href="#DejaVuSans-2f" x="945.214844"/>
    <use xlink:href="#DejaVuSans-68" x="978.90625"/>
    <use xlink:href="#DejaVuSans-5d" x="1042.285156"/>
   </g>
  </g>
  <g id="text_57">
   <!-- zTHF = 0.9925[molTHF/mol] -->
   <g transform="translate(855.36 786.24)scale(0.1 -0.1)">
    <use xlink:href="#DejaVuSans-7a"/>
    <use xlink:href="#DejaVuSans-54" x="52.490234"/>
    <use xlink:href="#DejaVuSans-48" x="113.574219"/>
    <use xlink:href="#DejaVuSans-46" x="188.769531"/>
    <use xlink:href="#DejaVuSans-20" x="246.289062"/>
    <use xlink:href="#DejaVuSans-3d" x="278.076172"/>
    <use xlink:href="#DejaVuSans-20" x="361.865234"/>
    <use xlink:href="#DejaVuSans-30" x="393.652344"/>
    <use xlink:href="#DejaVuSans-2e" x="457.275391"/>
    <use xlink:href="#DejaVuSans-39" x="489.0625"/>
    <use xlink:href="#DejaVuSans-39" x="552.685547"/>
    <use xlink:href="#DejaVuSans-32" x="616.308594"/>
    <use xlink:href="#DejaVuSans-35" x="679.931641"/>
    <use xlink:href="#DejaVuSans-5b" x="743.554688"/>
    <use xlink:href="#DejaVuSans-6d" x="782.568359"/>
    <use xlink:href="#DejaVuSans-6f" x="879.980469"/>
    <use xlink:href="#DejaVuSans-6c" x="941.162109"/>
    <use xlink:href="#DejaVuSans-54" x="968.945312"/>
    <use xlink:href="#DejaVuSans-48" x="1030.029297"/>
    <use xlink:href="#DejaVuSans-46" x="1105.224609"/>
    <use xlink:href="#DejaVuSans-2f" x="1162.744141"/>
    <use xlink:href="#DejaVuSans-6d" x="1196.435547"/>
    <use xlink:href="#DejaVuSans-6f" x="1293.847656"/>
    <use xlink:href="#DejaVuSans-6c" x="1355.029297"/>
    <use xlink:href="#DejaVuSans-5d" x="1382.8125"/>
   </g>
  </g>
  <g id="text_58">
   <!-- zMEOH = 0.0074[molMEOH/mol] -->
   <g transform="translate(855.36 814.32)scale(0.1 -0.1)">
    <use xlink:href="#DejaVuSans-7a"/>
    <use xlink:href="#DejaVuSans-4d" x="52.490234"/>
    <use xlink:href="#DejaVuSans-45" x="138.769531"/>
    <use xlink:href="#DejaVuSans-4f" x="201.953125"/>
    <use xlink:href="#DejaVuSans-48" x="280.664062"/>
    <use xlink:href="#DejaVuSans-20" x="355.859375"/>
    <use xlink:href="#DejaVuSans-3d" x="387.646484"/>
    <use xlink:href="#DejaVuSans-20" x="471.435547"/>
    <use xlink:href="#DejaVuSans-30" x="503.222656"/>
    <use xlink:href="#DejaVuSans-2e" x="566.845703"/>
    <use xlink:href="#DejaVuSans-30" x="598.632812"/>
    <use xlink:href="#DejaVuSans-30" x="662.255859"/>
    <use xlink:href="#DejaVuSans-37" x="725.878906"/>
    <use xlink:href="#DejaVuSans-34" x="789.501953"/>
    <use xlink:href="#DejaVuSans-5b" x="853.125"/>
    <use xlink:href="#DejaVuSans-6d" x="892.138672"/>
    <use xlink:href="#DejaVuSans-6f" x="989.550781"/>
    <use xlink:href="#DejaVuSans-6c" x="1050.732422"/>
    <use xlink:href="#DejaVuSans-4d" x="1078.515625"/>
    <use xlink:href="#DejaVuSans-45" x="1164.794922"/>
    <use xlink:href="#DejaVuSans-4f" x="1227.978516"/>
    <use xlink:href="#DejaVuSans-48" x="1306.689453"/>
    <use xlink:href="#DejaVuSans-2f" x="1381.884766"/>
    <use xlink:href="#DejaVuSans-6d" x="1415.576172"/>
    <use xlink:href="#DejaVuSans-6f" x="1512.988281"/>
    <use xlink:href="#DejaVuSans-6c" x="1574.169922"/>
    <use xlink:href="#DejaVuSans-5d" x="1601.953125"/>
   </g>
  </g>
  <g id="text_59">
   <!-- Boilup Ratio = 8.61 -->
   <g transform="translate(855.36 842.4)scale(0.1 -0.1)">
    <use xlink:href="#DejaVuSans-42"/>
    <use xlink:href="#DejaVuSans-6f" x="68.603516"/>
    <use xlink:href="#DejaVuSans-69" x="129.785156"/>
    <use xlink:href="#DejaVuSans-6c" x="157.568359"/>
    <use xlink:href="#DejaVuSans-75" x="185.351562"/>
    <use xlink:href="#DejaVuSans-70" x="248.730469"/>
    <use xlink:href="#DejaVuSans-20" x="312.207031"/>
    <use xlink:href="#DejaVuSans-52" x="343.994141"/>
    <use xlink:href="#DejaVuSans-61" x="411.226562"/>
    <use xlink:href="#DejaVuSans-74" x="472.505859"/>
    <use xlink:href="#DejaVuSans-69" x="511.714844"/>
    <use xlink:href="#DejaVuSans-6f" x="539.498047"/>
    <use xlink:href="#DejaVuSans-20" x="600.679688"/>
    <use xlink:href="#DejaVuSans-3d" x="632.466797"/>
    <use xlink:href="#DejaVuSans-20" x="716.255859"/>
    <use xlink:href="#DejaVuSans-38" x="748.042969"/>
    <use xlink:href="#DejaVuSans-2e" x="811.666016"/>
    <use xlink:href="#DejaVuSans-36" x="843.453125"/>
    <use xlink:href="#DejaVuSans-31" x="907.076172"/>
   </g>
  </g>
  <g id="text_60">
   <!-- Evaporator Duties = 1892[kW] -->
   <g transform="translate(855.36 870.48)scale(0.1 -0.1)">
    <use xlink:href="#DejaVuSans-45"/>
    <use xlink:href="#DejaVuSans-76" x="63.183594"/>
    <use xlink:href="#DejaVuSans-61" x="122.363281"/>
    <use xlink:href="#DejaVuSans-70" x="183.642578"/>
    <use xlink:href="#DejaVuSans-6f" x="247.119141"/>
    <use xlink:href="#DejaVuSans-72" x="308.300781"/>
    <use xlink:href="#DejaVuSans-61" x="349.414062"/>
    <use xlink:href="#DejaVuSans-74" x="410.693359"/>
    <use xlink:href="#DejaVuSans-6f" x="449.902344"/>
    <use xlink:href="#DejaVuSans-72" x="511.083984"/>
    <use xlink:href="#DejaVuSans-20" x="552.197266"/>
    <use xlink:href="#DejaVuSans-44" x="583.984375"/>
    <use xlink:href="#DejaVuSans-75" x="660.986328"/>
    <use xlink:href="#DejaVuSans-74" x="724.365234"/>
    <use xlink:href="#DejaVuSans-69" x="763.574219"/>
    <use xlink:href="#DejaVuSans-65" x="791.357422"/>
    <use xlink:href="#DejaVuSans-73" x="852.880859"/>
    <use xlink:href="#DejaVuSans-20" x="904.980469"/>
    <use xlink:href="#DejaVuSans-3d" x="936.767578"/>
    <use xlink:href="#DejaVuSans-20" x="1020.556641"/>
    <use xlink:href="#DejaVuSans-31" x="1052.34375"/>
    <use xlink:href="#DejaVuSans-38" x="1115.966797"/>
    <use xlink:href="#DejaVuSans-39" x="1179.589844"/>
    <use xlink:href="#DejaVuSans-32" x="1243.212891"/>
    <use xlink:href="#DejaVuSans-5b" x="1306.835938"/>
    <use xlink:href="#DejaVuSans-6b" x="1345.849609"/>
    <use xlink:href="#DejaVuSans-57" x="1403.759766"/>
    <use xlink:href="#DejaVuSans-5d" x="1502.636719"/>
   </g>
  </g>
 </g>
 <defs>
  <clipPath id="ped04ae7b70">
   <rect x="148.5" y="112.32" width="418.5" height="542.88"/>
  </clipPath>
  <clipPath id="p1711c0d890">
   <rect x="650.7" y="112.32" width="418.5" height="542.88"/>
  </clipPath>
 </defs>
</svg>
